<?xml version="1.0" encoding="utf-8"?>
<svg viewBox="280 218 149 166.2" xmlns="http://www.w3.org/2000/svg">
  <defs>
    <linearGradient id="linear-gradient-2" x1="47.31" y1="150.39" x2="205.85" y2="150.39" gradientUnits="userSpaceOnUse" gradientTransform="matrix(0.872142, 0, 0, 0.872143, 89.424219, 174.779012)">
      <stop offset="0" stop-color="#b3b3b3"/>
      <stop offset="1" stop-color="#ccc"/>
    </linearGradient>
    <linearGradient id="linear-gradient-4" x1="131.14" y1="265.37" x2="164.02" y2="265.37" gradientUnits="userSpaceOnUse" gradientTransform="matrix(1, 0, 0, 1.000001, 0.000046, -0.000094)">
      <stop offset="0" stop-color="#acacac"/>
      <stop offset="1" stop-color="#b0b0b0"/>
    </linearGradient>
    <linearGradient id="linear-gradient-5" x1="140.7" y1="265.37" x2="154.47" y2="265.37" gradientUnits="userSpaceOnUse" gradientTransform="matrix(1.000002, 0, 0, 1, -0.00019, 0.000305)">
      <stop offset="0" stop-color="gray"/>
      <stop offset="1" stop-color="#797a7a"/>
    </linearGradient>
    <style type="text/css">
                    .hide {
                      display: none
                    }

                    .leds, /* grunt-remove */
                    .rled, /* grunt-remove */
                    .gled, /* grunt-remove */
                    .bled { /* grunt-remove */
                      mix-blend-mode: screen; /* grunt-remove */
                    } /* grunt-remove */

                    /*Stop blending for off and kled*/ /* grunt-remove */
                    .kled, /* grunt-remove */
                    .oled { /* grunt-remove */
                      mix-blend-mode: normal; /* grunt-remove */
                    } /* grunt-remove */
                    /*Colored LEDs should glow*/

                    .rled,
                    .gled,
                    .bled {
                      filter: url(#glow);
                    }
                    /* Rectangles under the LEDs */

                    .ledrect {
                      filter: url(#shadow);
                      fill: url(#ledrect);
                    }

                    .st0 {
                      fill: #309A5D;
                      stroke: #004537;
                      stroke-width: 2.1959;
                      stroke-miterlimit: 10;
                    }

                    .st1 {
                      opacity: 0.15;
                    }

                    .st2 {
                      opacity: 0.15;
                      enable-background: new;
                    }

                    .st3 {
                      fill: url(#XMLID_8_);
                    }

                    .st4 {
                      opacity: 0.33;
                      clip-path: url(#SVGID_2_);
                      fill: url(#SVGID_3_);
                      enable-background: new;
                    }

                    .st5 {
                      opacity: 0.33;
                      clip-path: url(#SVGID_5_);
                      fill: url(#SVGID_6_);
                      enable-background: new;
                    }

                    .st6 {
                      fill: #4D4D4D;
                      stroke: #333333;
                      stroke-width: 1.0637;
                      stroke-miterlimit: 10;
                    }

                    .st7 {
                      fill: #20262E;
                    }

                    .st8 {
                      fill: #B3B3B3;
                    }

                    .st9 {
                      fill: none;
                      stroke: #666666;
                      stroke-width: 1.1067;
                      stroke-miterlimit: 10;
                    }

                    .st10 {
                      fill: none;
                      stroke: #666666;
                      stroke-width: 1.0637;
                      stroke-miterlimit: 10;
                    }

                    .st11 {
                      fill: none;
                      stroke: #666666;
                      stroke-width: 2.4169;
                      stroke-miterlimit: 10;
                    }

                    .st12 {
                      fill: #E6E6E6;
                    }

                    .st13 {
                      clip-path: url(#SVGID_8_);
                      fill: #FFFFFF;
                      fill-opacity: 0.25;
                    }

                    .st14 {
                      clip-path: url(#SVGID_10_);
                      fill: #FFFFFF;
                      fill-opacity: 0.25;
                    }

                    .st15 {
                      fill: none;
                      stroke: #666666;
                      stroke-width: 1.1336;
                      stroke-miterlimit: 10;
                    }

                    .st16 {
                      clip-path: url(#SVGID_12_);
                      fill: #FFFFFF;
                      fill-opacity: 0.25;
                    }

                    .st17 {
                      clip-path: url(#SVGID_14_);
                      fill: #FFFFFF;
                      fill-opacity: 0.25;
                    }

                    .st18 {
                      clip-path: url(#SVGID_16_);
                      fill: #FFFFFF;
                      fill-opacity: 0.25;
                    }

                    .st19 {
                      clip-path: url(#SVGID_18_);
                      fill: #FFFFFF;
                      fill-opacity: 0.25;
                    }

                    .st20 {
                      fill: none;
                      stroke: #FFDB13;
                      stroke-width: 5.8236;
                      stroke-miterlimit: 10;
                    }

                    .st21 {
                      fill: none;
                      stroke: #FFDB13;
                      stroke-width: 5.6295;
                      stroke-miterlimit: 10;
                    }

                    .st22 {
                      fill: none;
                      stroke: #FFDB13;
                      stroke-width: 5.5324;
                      stroke-miterlimit: 10;
                    }

                    .st23 {
                      fill: #575756;
                      stroke: #3C3C3B;
                      stroke-width: 1.1099;
                      stroke-miterlimit: 10;
                    }

                    .st24 {
                      fill: #BDBEC2;
                    }

                    .st25 {
                      fill: #575756;
                      stroke: #3C3C3B;
                      stroke-width: 0.2469;
                      stroke-miterlimit: 10;
                    }

                    .st26 {
                      fill: none;
                      stroke: #FFDB13;
                      stroke-width: 6.2377;
                      stroke-miterlimit: 10;
                    }

                    .st27 {
                      fill: #B3B3B3;
                      stroke: #666666;
                      stroke-width: 0.8999;
                      stroke-miterlimit: 10;
                    }

                    .st28 {
                      opacity: 0.25;
                      fill: #FFFFFF;
                      enable-background: new;
                    }

                    .st29 {
                      fill: #333333;
                    }

                    .st30 {
                      fill: #575756;
                      stroke: #3C3C3B;
                      stroke-width: 1.3186;
                      stroke-miterlimit: 10;
                    }

                    .st31 {
                      fill: #8E5F41;
                    }

                    .st32 {
                      fill: #F29F6A;
                    }

                    .st33 {
                      fill: #B89A5D;
                    }

                    .st34 {
                      opacity: 0.4;
                    }

                    .st35 {
                      fill: #575756;
                    }

                    .st36 {
                      fill: #F5F5F5;
                    }

                    .st37 {
                      fill: url(#bigrect);
                    }

                    .st38 {
                      filter: url(#shadow);
                      fill: url(#ledrect);
                    }

                    .st39 {
                      opacity: 1;
                      fill: black; /* grunt-replace-with fill: url(#ledrect); */
                    }

                    /*Ignore dark LED circles that turned into white rings on blend */
                    .st40 {
                      fill: #968E87;
                      opacity: 0;
                    }

                    .st41 {
                      opacity: 0.1;
                      fill: #1D1D1B;
                    }

                    .st42 {
                      opacity: 0.15;
                      fill: #1D1D1B;
                    }

                    .st43 {
                      fill: #3F3F3F;
                      stroke: #333333;
                      stroke-width: 1.9404;
                      stroke-miterlimit: 10;
                    }

                    .st44 {
                      fill: #484848;
                      stroke: #333333;
                      stroke-width: 1.8277;
                      stroke-miterlimit: 10;
                    }

                    .st45 {
                      opacity: 0.25;
                      fill: #1D1D1B;
                    }

                    .st46 {
                      fill: #414140;
                      stroke: #333333;
                      stroke-width: 1.7828;
                      stroke-miterlimit: 10;
                    }

                    .st47 {
                      fill: #484848;
                      stroke: #333333;
                      stroke-width: 2.1136;
                      stroke-miterlimit: 10;
                    }
                  </style>
    <style>
              .cls-1 {
                isolation: isolate;
              }

              .cls-2 {
                fill: #ccc;
              }

              .cls-19, .cls-2, .cls-21, .cls-25, .cls-27, .cls-29, .cls-3, .cls-31, .cls-37, .cls-4, .cls-43, .cls-45, .cls-47, .cls-49, .cls-51, .cls-53, .cls-55, .cls-57 {
                stroke: #999;
              }

              .cls-13, .cls-15, .cls-16, .cls-17, .cls-18, .cls-19, .cls-2, .cls-20, .cls-21, .cls-23, .cls-24, .cls-25, .cls-26, .cls-27, .cls-28, .cls-29, .cls-3, .cls-30, .cls-31, .cls-32, .cls-36, .cls-37, .cls-39, .cls-4, .cls-40, .cls-41, .cls-42, .cls-43, .cls-44, .cls-45, .cls-46, .cls-47, .cls-48, .cls-49, .cls-50, .cls-51, .cls-52, .cls-53, .cls-54, .cls-55, .cls-56, .cls-57, .cls-58, .cls-7 {
                stroke-miterlimit: 10;
              }

              .cls-15, .cls-19, .cls-2, .cls-20, .cls-21, .cls-23, .cls-24, .cls-27, .cls-28, .cls-31, .cls-32, .cls-36, .cls-37, .cls-39, .cls-4, .cls-40, .cls-41, .cls-42, .cls-45, .cls-46, .cls-49, .cls-50, .cls-53, .cls-54, .cls-57, .cls-58 {
                stroke-width: 1.15px;
              }

              .cls-3 {
                fill: #e6e6e6;
              }

              .cls-4 {
                fill: url(#linear-gradient);
              }

              .cls-5 {
                fill: url(#linear-gradient-2);
              }

              .cls-6 {
                opacity: 0.2;
                mix-blend-mode: darken;
              }

              .cls-7 {
                stroke: #e1ccbc;
                stroke-width: 1.64px;
                fill: url(#linear-gradient-3);
              }

              .cls-14, .cls-8 {
                opacity: 0.3;
              }

              .cls-8 {
                mix-blend-mode: multiply;
              }

              .cls-9 {
                fill: #ca8c33;
              }

              .cls-10, .cls-14 {
                fill: #fff;
              }

              .cls-11 {
                fill: #f6f6f6;
              }

              .cls-12 {
                fill: #edd5bd;
              }

              .cls-13, .cls-15, .cls-16, .cls-17, .cls-18 {
                fill: #c1272d;
                stroke: #71272d;
              }

              .cls-13 {
                stroke-width: 0.87px;
              }

              .cls-16 {
                stroke-width: 0.89px;
              }

              .cls-17 {
                stroke-width: 0.96px;
              }

              .cls-18 {
                stroke-width: 1.05px;
              }

              .cls-19 {
                fill: url(#linear-gradient-4);
              }

              .cls-20, .cls-23, .cls-24, .cls-26, .cls-28, .cls-30, .cls-32, .cls-36, .cls-39, .cls-40, .cls-41, .cls-42, .cls-44, .cls-46, .cls-48, .cls-50, .cls-52, .cls-54, .cls-56, .cls-58 {
                stroke: #666;
              }

              .cls-20 {
                fill: url(#linear-gradient-5);
              }

              .cls-21 {
                fill: url(#linear-gradient-6);
              }

              .cls-22 {
                fill: url(#linear-gradient-7);
              }

              .cls-23 {
                fill: url(#linear-gradient-8);
              }

              .cls-24 {
                fill: url(#linear-gradient-9);
              }

              .cls-25, .cls-26, .cls-29, .cls-30, .cls-43, .cls-44, .cls-47, .cls-48, .cls-55, .cls-56 {
                stroke-width: 0.91px;
              }

              .cls-25 {
                fill: url(#radial-gradient);
              }

              .cls-26 {
                fill: url(#radial-gradient-2);
              }

              .cls-27 {
                fill: url(#radial-gradient-3);
              }

              .cls-28 {
                fill: url(#radial-gradient-4);
              }

              .cls-29 {
                fill: url(#radial-gradient-5);
              }

              .cls-30 {
                fill: url(#radial-gradient-6);
              }

              .cls-31 {
                fill: url(#radial-gradient-7);
              }

              .cls-32 {
                fill: url(#radial-gradient-8);
              }

              .cls-33 {
                opacity: 0.4;
              }

              .cls-34, .cls-36 {
                opacity: 0.6;
              }

              .cls-35 {
                fill: #666;
              }

              .cls-36 {
                fill: none;
              }

              .cls-37 {
                fill: url(#linear-gradient-10);
              }

              .cls-38 {
                fill: url(#linear-gradient-11);
              }

              .cls-39 {
                fill: url(#linear-gradient-12);
              }

              .cls-40 {
                fill: url(#linear-gradient-13);
              }

              .cls-41 {
                fill: url(#linear-gradient-14);
              }

              .cls-42 {
                fill: url(#linear-gradient-15);
              }

              .cls-43 {
                fill: url(#radial-gradient-9);
              }

              .cls-44 {
                fill: url(#radial-gradient-10);
              }

              .cls-45 {
                fill: url(#radial-gradient-11);
              }

              .cls-46 {
                fill: url(#radial-gradient-12);
              }

              .cls-47 {
                fill: url(#radial-gradient-13);
              }

              .cls-48 {
                fill: url(#radial-gradient-14);
              }

              .cls-49 {
                fill: url(#radial-gradient-15);
              }

              .cls-50 {
                fill: url(#radial-gradient-16);
              }

              .cls-51, .cls-52 {
                stroke-width: 0.91px;
              }

              .cls-51 {
                fill: url(#radial-gradient-17);
              }

              .cls-52 {
                fill: url(#radial-gradient-18);
              }

              .cls-53 {
                fill: url(#radial-gradient-19);
              }

              .cls-54 {
                fill: url(#radial-gradient-20);
              }

              .cls-55 {
                fill: url(#radial-gradient-21);
              }

              .cls-56 {
                fill: url(#radial-gradient-22);
              }

              .cls-57 {
                fill: url(#radial-gradient-23);
              }

              .cls-58 {
                fill: url(#radial-gradient-24);
              }
            </style>
  </defs>
  <path class="cls-2" d="M 427.202 306.957 C 420.349 306.955 414.835 312.593 414.991 319.446 L 414.991 319.446 L 414.991 368.957 C 414.991 373.628 411.204 377.417 406.531 377.417 L 107.055 377.417 C 102.384 377.417 98.595 373.628 98.595 368.957 L 98.595 70.605 C 98.595 65.934 102.384 62.146 107.055 62.146 L 406.471 62.146 C 411.143 62.146 414.931 65.934 414.931 70.605 L 414.931 122.332 C 414.931 129.076 420.398 134.543 427.14 134.543 L 446.738 134.543 L 446.738 306.957 Z" transform="matrix(0, -1, 1, 0, 52.885012, 492.447996)"/>
  <path class="cls-5" d="M 173.701 344.848 L 265.232 344.848 C 267.289 344.848 268.955 343.179 268.955 341.122 L 268.955 230.265 C 268.955 228.208 267.289 226.539 265.232 226.539 L 158.23 226.539 C 156.171 226.539 154.504 228.208 154.504 230.265 L 154.504 325.024 C 154.504 325.024 154.496 344.848 173.701 344.848 Z" transform="matrix(0, -1, 1, 0, -73.963975, 497.422976)"/>
  <circle class="cls-19" cx="147.58" cy="265.37" r="16.44" transform="matrix(0, -0.872143, 0.872144, 0, 100.814598, 407.998718)"/>
  <circle class="cls-20" cx="147.58" cy="265.37" r="6.88" transform="matrix(0, -0.872143, 0.872146, 0, 100.813995, 407.998627)"/>
  <path class="cls-35" d="M 287.336 316.481 L 287.336 309.319 L 288.286 309.319 L 288.286 315.635 L 291.775 315.635 L 291.775 316.506 Z" transform="matrix(0, -1, 1, 0, -23.35701, 602.468012)"/>
  <path class="cls-35" d="M 286.926 310.497 L 286.926 303.337 L 292.106 303.337 L 292.106 304.209 L 287.877 304.209 L 287.877 306.399 L 291.836 306.399 L 291.836 307.271 L 287.877 307.271 L 287.877 309.705 L 292.237 309.705 L 292.237 310.576 Z" transform="matrix(0, -1, 1, 0, -17.374998, 596.53799)"/>
  <path class="cls-35" d="M 286.597 303.654 L 286.597 296.495 L 289.067 296.495 C 289.492 296.485 289.92 296.519 290.339 296.599 C 290.725 296.684 291.083 296.859 291.386 297.114 C 291.778 297.44 292.078 297.859 292.258 298.335 C 292.458 298.895 292.551 299.486 292.537 300.079 C 292.545 300.569 292.479 301.057 292.345 301.527 C 292.241 301.901 292.076 302.253 291.857 302.573 C 291.678 302.828 291.457 303.05 291.203 303.227 C 290.935 303.398 290.639 303.519 290.331 303.585 C 289.953 303.671 289.566 303.714 289.178 303.708 Z M 287.548 302.782 L 289.076 302.782 C 289.447 302.795 289.823 302.752 290.183 302.651 C 290.423 302.58 290.644 302.452 290.826 302.277 C 291.065 302.03 291.245 301.732 291.35 301.405 C 291.486 300.959 291.552 300.493 291.541 300.026 C 291.581 299.425 291.455 298.82 291.176 298.284 C 290.983 297.925 290.676 297.639 290.304 297.473 C 289.906 297.354 289.489 297.305 289.076 297.323 L 287.574 297.323 Z" transform="matrix(0, -1, 1, 0, -10.533199, 589.668619)"/>
  <path class="cls-35" d="M 286.109 293.47 L 286.109 286.31 L 287.541 286.31 L 289.233 291.376 C 289.389 291.846 289.504 292.201 289.573 292.441 C 289.655 292.18 289.783 291.794 289.957 291.288 L 291.702 286.31 L 292.975 286.31 L 292.975 293.47 L 292.102 293.47 L 292.102 287.478 L 290.018 293.47 L 289.146 293.47 L 287.078 287.364 L 287.078 293.47 Z" transform="matrix(0, -1, 1, 0, -0.34804, 579.431979)"/>
  <path class="cls-35" d="M 291.85 285.042 C 291.572 285.289 291.254 285.488 290.909 285.628 C 290.6 285.744 290.271 285.803 289.94 285.801 C 289.465 285.833 288.994 285.685 288.623 285.382 C 288.321 285.114 288.151 284.724 288.16 284.318 C 288.158 284.076 288.22 283.835 288.335 283.62 C 288.445 283.419 288.599 283.246 288.79 283.116 C 288.985 282.985 289.201 282.889 289.426 282.828 C 289.685 282.766 289.948 282.724 290.21 282.696 C 290.744 282.647 291.269 282.545 291.781 282.392 C 291.781 282.269 291.781 282.191 291.781 282.165 C 291.81 281.888 291.718 281.611 291.527 281.405 C 291.242 281.187 290.884 281.083 290.524 281.108 C 290.205 281.085 289.884 281.162 289.61 281.328 C 289.38 281.526 289.227 281.796 289.173 282.094 L 288.3 281.981 C 288.362 281.666 288.494 281.367 288.684 281.108 C 288.889 280.866 289.158 280.683 289.461 280.586 C 289.84 280.457 290.238 280.395 290.638 280.403 C 291.005 280.39 291.372 280.443 291.719 280.56 C 291.954 280.636 292.165 280.771 292.329 280.952 C 292.467 281.128 292.561 281.335 292.601 281.554 C 292.639 281.821 292.652 282.093 292.643 282.364 L 292.643 283.508 C 292.628 284.026 292.646 284.545 292.696 285.061 C 292.733 285.278 292.807 285.487 292.913 285.68 L 291.999 285.68 C 291.913 285.479 291.862 285.263 291.85 285.042 Z M 291.781 283.08 C 291.316 283.247 290.832 283.357 290.341 283.412 C 290.08 283.438 289.823 283.499 289.574 283.586 C 289.432 283.645 289.31 283.744 289.225 283.873 C 289.019 284.199 289.083 284.625 289.374 284.876 C 289.594 285.049 289.871 285.131 290.149 285.112 C 290.455 285.114 290.754 285.038 291.023 284.893 C 291.277 284.758 291.481 284.544 291.607 284.283 C 291.714 284.007 291.761 283.709 291.747 283.412 Z" transform="matrix(0, -1, 1, 0, 7.433159, 573.639511)"/>
  <path class="cls-35" d="M 290.79 281.611 L 290.921 282.387 C 290.703 282.436 290.482 282.463 290.259 282.466 C 290.004 282.481 289.746 282.43 289.518 282.318 C 289.353 282.227 289.221 282.086 289.142 281.915 C 289.049 281.579 289.014 281.229 289.037 280.879 L 289.037 277.895 L 288.393 277.895 L 288.393 277.215 L 289.037 277.215 L 289.037 275.934 L 289.911 275.41 L 289.911 277.223 L 290.782 277.223 L 290.782 277.904 L 289.911 277.904 L 289.911 280.94 C 289.9 281.101 289.914 281.261 289.953 281.418 C 289.983 281.491 290.035 281.551 290.101 281.595 C 290.193 281.64 290.295 281.66 290.399 281.654 Z" transform="matrix(0, -1, 1, 0, 10.717713, 568.596263)"/>
  <path class="cls-35" d="M 289.094 278.337 L 289.094 273.148 L 289.851 273.148 L 289.851 273.934 C 289.984 273.655 290.174 273.408 290.411 273.21 C 290.575 273.095 290.774 273.032 290.977 273.034 C 291.289 273.048 291.589 273.145 291.849 273.314 L 291.544 274.134 C 291.35 274.011 291.127 273.945 290.899 273.942 C 290.713 273.944 290.532 274.005 290.384 274.117 C 290.225 274.238 290.108 274.404 290.053 274.597 C 289.951 274.93 289.902 275.276 289.905 275.626 L 289.905 278.337 Z" transform="matrix(0, -1, 1, 0, 14.785977, 566.156973)"/>
  <path class="cls-35" d="M 289.107 270.825 L 289.107 269.812 L 289.978 269.812 L 289.978 270.825 Z M 289.107 276.971 L 289.107 271.783 L 289.978 271.783 L 289.978 276.971 Z" transform="matrix(0, -1, 1, 0, 16.150959, 562.933998)"/>
  <path class="cls-35" d="M 288.096 272.48 L 289.987 269.787 L 288.244 267.291 L 289.334 267.291 L 290.127 268.504 C 290.278 268.737 290.396 268.931 290.485 269.089 L 290.878 268.513 L 291.749 267.282 L 292.822 267.282 L 291.026 269.723 L 292.952 272.473 L 291.872 272.473 L 290.808 270.86 L 290.528 270.424 L 289.167 272.473 Z" transform="matrix(0, -1, 1, 0, 20.642949, 560.404997)"/>
  <polyline class="cls-36" points="287.576 265.613 291.081 265.613 291.081 258.112" transform="matrix(0, -1, 1, 0, 27.465977, 551.190956)"/>
  <line class="cls-36" x1="304.578" y1="319.131" x2="311.581" y2="319.131" transform="matrix(0, -1, 1, 0, -11.051544, 627.210495)"/>
  <path class="cls-35" d="M 305.943 312.704 L 306.816 312.592 C 306.793 312.99 306.9 313.384 307.12 313.717 C 307.317 313.925 307.594 314.037 307.88 314.022 C 308.098 314.029 308.313 313.969 308.498 313.856 C 308.664 313.753 308.791 313.596 308.857 313.412 C 308.931 313.127 308.965 312.834 308.952 312.54 L 308.952 307.604 L 309.903 307.604 L 309.903 312.479 C 309.924 312.953 309.852 313.428 309.684 313.874 C 309.547 314.195 309.303 314.458 308.997 314.625 C 308.656 314.804 308.274 314.894 307.889 314.886 C 307.353 314.921 306.83 314.723 306.448 314.345 C 306.07 313.887 305.887 313.297 305.943 312.704 Z" transform="matrix(0, -1, 1, 0, -3.327193, 619.166779)"/>
  <path class="cls-35" d="M 306.382 305.874 C 306.317 305.077 306.611 304.294 307.184 303.736 C 307.638 303.351 308.218 303.145 308.815 303.16 C 309.469 303.138 310.1 303.391 310.559 303.859 C 311.034 304.386 311.28 305.084 311.239 305.794 C 311.267 306.337 311.164 306.877 310.943 307.372 C 310.744 307.745 310.44 308.047 310.072 308.246 C 309.686 308.456 309.254 308.565 308.815 308.558 C 308.163 308.582 307.528 308.33 307.069 307.861 C 306.59 307.314 306.343 306.601 306.382 305.874 Z M 307.253 305.874 C 307.213 306.406 307.368 306.937 307.689 307.364 C 308.267 308.025 309.293 308.025 309.87 307.364 C 310.192 306.928 310.347 306.388 310.305 305.847 C 310.343 305.323 310.187 304.807 309.87 304.391 C 309.293 303.73 308.267 303.73 307.689 304.391 C 307.379 304.82 307.233 305.346 307.278 305.874 Z" transform="matrix(0, -1, 1, 0, 2.949155, 614.667438)"/>
  <path class="cls-35" d="M 307.891 304.228 L 307.794 303.399 C 307.959 303.447 308.13 303.474 308.301 303.478 C 308.464 303.486 308.624 303.454 308.771 303.383 C 308.889 303.318 308.988 303.225 309.058 303.112 C 309.167 302.902 309.259 302.683 309.329 302.459 L 309.408 302.241 L 307.439 297.005 L 308.388 297.005 L 309.469 300.008 C 309.609 300.39 309.733 300.793 309.844 301.211 C 309.944 300.81 310.061 300.414 310.202 300.024 L 311.309 296.997 L 312.182 296.997 L 310.21 302.23 C 310.07 302.633 309.904 303.027 309.714 303.407 C 309.588 303.661 309.403 303.88 309.173 304.045 C 308.957 304.184 308.706 304.252 308.449 304.245 C 308.262 304.27 308.075 304.264 307.891 304.228 Z" transform="matrix(0, -1, 1, 0, 9.181908, 610.439085)"/>
  <path class="cls-35" d="M 306.686 296.858 L 307.558 296.719 C 307.588 297.03 307.734 297.316 307.968 297.522 C 308.237 297.721 308.568 297.82 308.901 297.8 C 309.211 297.819 309.519 297.734 309.772 297.556 C 309.955 297.42 310.064 297.208 310.072 296.981 C 310.077 296.787 309.975 296.607 309.809 296.51 C 309.532 296.376 309.239 296.276 308.935 296.214 C 308.478 296.112 308.029 295.972 307.593 295.795 C 307.127 295.585 306.829 295.119 306.835 294.608 C 306.832 294.384 306.886 294.162 306.991 293.964 C 307.097 293.769 307.246 293.602 307.428 293.474 C 307.599 293.359 307.787 293.274 307.987 293.221 C 308.233 293.15 308.488 293.114 308.746 293.118 C 309.11 293.109 309.473 293.168 309.818 293.292 C 310.087 293.381 310.324 293.549 310.497 293.771 C 310.66 294.011 310.766 294.286 310.803 294.573 L 309.931 294.687 C 309.904 294.441 309.782 294.216 309.59 294.058 C 309.36 293.895 309.079 293.816 308.796 293.833 C 308.493 293.804 308.186 293.875 307.925 294.033 C 307.767 294.138 307.668 294.314 307.663 294.502 C 307.662 294.614 307.698 294.723 307.768 294.81 C 307.858 294.916 307.974 294.998 308.108 295.043 L 308.884 295.271 C 309.325 295.38 309.76 295.517 310.183 295.681 C 310.416 295.777 310.615 295.938 310.759 296.144 C 310.905 296.366 310.978 296.627 310.969 296.893 C 310.969 297.189 310.88 297.477 310.714 297.722 C 310.533 297.989 310.275 298.2 309.974 298.324 C 309.629 298.468 309.259 298.54 308.884 298.532 C 308.337 298.571 307.792 298.424 307.34 298.113 C 306.973 297.793 306.74 297.345 306.686 296.858 Z" transform="matrix(0, -1, 1, 0, 13.000245, 604.655519)"/>
  <path class="cls-35" d="M 309.062 294.633 L 309.192 295.407 C 308.974 295.457 308.753 295.482 308.529 295.487 C 308.275 295.502 308.02 295.449 307.788 295.338 C 307.625 295.25 307.493 295.109 307.413 294.938 C 307.321 294.599 307.285 294.25 307.31 293.898 L 307.31 290.917 L 306.663 290.917 L 306.663 290.237 L 307.31 290.237 L 307.31 288.902 L 308.181 288.378 L 308.181 290.191 L 309.053 290.191 L 309.053 290.872 L 308.181 290.872 L 308.181 293.909 C 308.17 294.069 308.185 294.232 308.224 294.388 C 308.254 294.46 308.306 294.522 308.372 294.563 C 308.464 294.608 308.568 294.63 308.67 294.622 Z" transform="matrix(0, -1, 1, 0, 15.993718, 599.861231)"/>
  <path class="cls-35" d="M 307.394 287.046 L 307.394 286.035 L 308.269 286.035 L 308.269 287.046 Z M 307.394 293.194 L 307.394 288.006 L 308.269 288.006 L 308.269 293.194 Z" transform="matrix(0, -1, 1, 0, 18.217038, 597.446028)"/>
  <path class="cls-35" d="M 310.217 286.655 L 311.089 286.768 C 311.023 287.306 310.766 287.802 310.365 288.165 C 309.967 288.504 309.457 288.685 308.933 288.67 C 308.278 288.706 307.64 288.45 307.19 287.973 C 306.727 287.413 306.495 286.698 306.545 285.974 C 306.533 285.469 306.629 284.968 306.823 284.501 C 306.999 284.098 307.308 283.765 307.695 283.559 C 308.075 283.349 308.501 283.244 308.933 283.246 C 309.429 283.225 309.915 283.377 310.311 283.672 C 310.683 283.979 310.928 284.41 311 284.885 L 310.128 285.016 C 310.073 284.712 309.918 284.439 309.693 284.231 C 309.482 284.054 309.217 283.961 308.942 283.97 C 308.528 283.956 308.13 284.134 307.861 284.448 C 307.546 284.886 307.398 285.421 307.443 285.958 C 307.398 286.495 307.539 287.031 307.844 287.475 C 308.101 287.786 308.488 287.958 308.89 287.945 C 309.211 287.958 309.525 287.847 309.763 287.631 C 310.024 287.371 310.184 287.026 310.217 286.655 Z" transform="matrix(0, -1, 1, 0, 22.854899, 594.772377)"/>
  <path class="cls-35" d="M 305.686 284.446 L 305.686 277.287 L 306.558 277.287 L 306.558 281.368 L 308.642 279.258 L 309.811 279.258 L 307.83 281.185 L 310.011 284.446 L 308.938 284.446 L 307.194 281.829 L 306.575 282.423 L 306.575 284.482 Z" transform="matrix(0, -1, 1, 0, 26.964038, 588.733009)"/>
</svg>