<?xml version="1.0" encoding="utf-8"?>
<svg width="335.5" height="305.9000244140625" viewBox="23.1 90.4 312 264" xmlns="http://www.w3.org/2000/svg">
  <defs>
    <style type="text/css">
            .leds,
            .rled,
            .gled,
            .bled {
              mix-blend-mode: screen;
            }

            /*Stop blending for off and kled*/
            .kled,
            .oled {
              mix-blend-mode: normal;
            }
            /*Colored LEDs should glow*/

            .rled,
            .gled,
            .bled {
              filter: url(#glow);
            }
            /* Rectangles under the LEDs */

            .ledrect {
              filter: url(#shadow);
              fill: url(#ledrect);
            }

            .st0 {
              fill: #309A5D;
              stroke: #004537;
              stroke-width: 2.1959;
              stroke-miterlimit: 10;
            }

            .st1 {
              opacity: 0.15;
            }

            .st2 {
              opacity: 0.15;
              enable-background: new;
            }

            .st3 {
              fill: url(#XMLID_8_);
            }

            .st4 {
              opacity: 0.33;
              clip-path: url(#SVGID_2_);
              fill: url(#SVGID_3_);
              enable-background: new;
            }

            .st5 {
              opacity: 0.33;
              clip-path: url(#SVGID_5_);
              fill: url(#SVGID_6_);
              enable-background: new;
            }

            .st6 {
              fill: #4D4D4D;
              stroke: #333333;
              stroke-width: 1.0637;
              stroke-miterlimit: 10;
            }

            .st7 {
              fill: #20262E;
            }

            .st8 {
              fill: #B3B3B3;
            }

            .st9 {
              fill: none;
              stroke: #666666;
              stroke-width: 1.1067;
              stroke-miterlimit: 10;
            }

            .st10 {
              fill: none;
              stroke: #666666;
              stroke-width: 1.0637;
              stroke-miterlimit: 10;
            }

            .st11 {
              fill: none;
              stroke: #666666;
              stroke-width: 2.4169;
              stroke-miterlimit: 10;
            }

            .st12 {
              fill: #E6E6E6;
            }

            .st13 {
              clip-path: url(#SVGID_8_);
              fill: #FFFFFF;
              fill-opacity: 0.25;
            }

            .st14 {
              clip-path: url(#SVGID_10_);
              fill: #FFFFFF;
              fill-opacity: 0.25;
            }

            .st15 {
              fill: none;
              stroke: #666666;
              stroke-width: 1.1336;
              stroke-miterlimit: 10;
            }

            .st16 {
              clip-path: url(#SVGID_12_);
              fill: #FFFFFF;
              fill-opacity: 0.25;
            }

            .st17 {
              clip-path: url(#SVGID_14_);
              fill: #FFFFFF;
              fill-opacity: 0.25;
            }

            .st18 {
              clip-path: url(#SVGID_16_);
              fill: #FFFFFF;
              fill-opacity: 0.25;
            }

            .st19 {
              clip-path: url(#SVGID_18_);
              fill: #FFFFFF;
              fill-opacity: 0.25;
            }

            .st20 {
              fill: none;
              stroke: #FFDB13;
              stroke-width: 5.8236;
              stroke-miterlimit: 10;
            }

            .st21 {
              fill: none;
              stroke: #FFDB13;
              stroke-width: 5.6295;
              stroke-miterlimit: 10;
            }

            .st22 {
              fill: none;
              stroke: #FFDB13;
              stroke-width: 5.5324;
              stroke-miterlimit: 10;
            }

            .st23 {
              fill: #575756;
              stroke: #3C3C3B;
              stroke-width: 1.1099;
              stroke-miterlimit: 10;
            }

            .st24 {
              fill: #BDBEC2;
            }

            .st25 {
              fill: #575756;
              stroke: #3C3C3B;
              stroke-width: 0.2469;
              stroke-miterlimit: 10;
            }

            .st26 {
              fill: none;
              stroke: #FFDB13;
              stroke-width: 6.2377;
              stroke-miterlimit: 10;
            }

            .st27 {
              fill: #B3B3B3;
              stroke: #666666;
              stroke-width: 0.8999;
              stroke-miterlimit: 10;
            }

            .st28 {
              opacity: 0.25;
              fill: #FFFFFF;
              enable-background: new;
            }

            .st29 {
              fill: #333333;
            }

            .st30 {
              fill: #575756;
              stroke: #3C3C3B;
              stroke-width: 1.3186;
              stroke-miterlimit: 10;
            }

            .st31 {
              fill: #8E5F41;
            }

            .st32 {
              fill: #F29F6A;
            }

            .st33 {
              fill: #B89A5D;
            }

            .st34 {
              opacity: 0.4;
            }

            .st35 {
              fill: #575756;
            }

            .st36 {
              fill: #F5F5F5;
            }

            .st37 {
              fill: url(#bigrect);
            }

            .st38 {
              filter: url(#shadow);
              fill: url(#ledrect);
            }

            .st39 {
              opacity: 1;
              fill: black;
            }

            /*Ignore dark LED circles that turned into white rings on blend */
            .st40 {
              fill: #968E87;
              opacity: 0;
            }

            .st41 {
              opacity: 0.1;
              fill: #1D1D1B;
            }

            .st42 {
              opacity: 0.15;
              fill: #1D1D1B;
            }

            .st43 {
              fill: #3F3F3F;
              stroke: #333333;
              stroke-width: 1.9404;
              stroke-miterlimit: 10;
            }

            .st44 {
              fill: #484848;
              stroke: #333333;
              stroke-width: 1.8277;
              stroke-miterlimit: 10;
            }

            .st45 {
              opacity: 0.25;
              fill: #1D1D1B;
            }

            .st46 {
              fill: #414140;
              stroke: #333333;
              stroke-width: 1.7828;
              stroke-miterlimit: 10;
            }

            .st47 {
              fill: #484848;
              stroke: #333333;
              stroke-width: 2.1136;
              stroke-miterlimit: 10;
            }
          </style>
  </defs>
  <g transform="matrix(0.864096, 0, 0, 0.864096, 3.207471, 12.141257)">
    <path class="st0" d="M 23.758 395.34 L 23.601 91.145 C 34.495 89.337 384.265 90.864 384.265 90.864 C 384.83 111.495 383.995 396.28 383.995 396.28 C 368.39 397.459 39.135 395.905 23.758 395.34 Z" style="stroke: rgb(48, 154, 93);"/>
    <ellipse class="st0" cx="44.5" cy="114.9" rx="10.9" ry="10.9"/>
    <ellipse class="st0" cx="45.7" cy="368.1" rx="10.9" ry="10.9"/>
    <ellipse class="st0" cx="360.183" cy="366.7" rx="10.9" ry="10.9"/>
    <ellipse class="st0" cx="361.297" cy="113.5" rx="10.9" ry="10.9"/>
    <ellipse class="st20" cx="360.597" cy="113.5" rx="11.2" ry="11.2"/>
    <ellipse class="st21" cx="46.3" cy="368.3" rx="10.9" ry="10.9"/>
    <ellipse class="st22" cx="44.9" cy="114.7" rx="10.7" ry="10.7"/>
    <path class="st23" d="M 136.1 371 L 136 345.6 C 136 344.9 136.5 344.4 137.2 344.4 L 162.6 344.3 C 163.3 344.3 163.8 344.8 163.8 345.5 L 163.9 370.9 C 163.9 371.6 163.4 372.1 162.7 372.1 L 137.3 372.2 C 136.7 372.3 136.1 371.7 136.1 371 Z"/>
    <rect x="30.3" y="317.7" class="st24" width="4.5" height="1.8"/>
    <rect x="30.5" y="321.7" class="st24" width="4.5" height="1.8"/>
    <rect x="35.4" y="319.6" class="st24" width="4.5" height="1.8"/>
    <path class="st25" d="M 32.8 324.3 L 32.8 316.7 C 32.8 316.5 32.9 316.4 33.1 316.4 L 37.2 316.4 C 37.4 316.4 37.5 316.5 37.5 316.7 L 37.5 324.3 C 37.5 324.5 37.4 324.6 37.2 324.6 L 33.1 324.6 C 32.9 324.6 32.8 324.5 32.8 324.3 Z"/>
    <rect x="30.3" y="300.1" class="st24" width="4.5" height="1.8"/>
    <rect x="30.5" y="304.1" class="st24" width="4.5" height="1.8"/>
    <rect x="35.4" y="302" class="st24" width="4.5" height="1.8"/>
    <path class="st25" d="M 32.8 306.7 L 32.8 299.1 C 32.8 298.9 32.9 298.8 33.1 298.8 L 37.2 298.8 C 37.4 298.8 37.5 298.9 37.5 299.1 L 37.5 306.7 C 37.5 306.9 37.4 307 37.2 307 L 33.1 307 C 32.9 307 32.8 306.9 32.8 306.7 Z"/>
    <rect x="44" y="308.9" class="st24" width="4.5" height="1.8"/>
    <rect x="43.8" y="312.9" class="st24" width="4.5" height="1.8"/>
    <rect x="38.9" y="310.8" class="st24" width="4.5" height="1.8"/>
    <path class="st25" d="M 46.1 315.5 L 46.1 307.9 C 46.1 307.7 46 307.6 45.8 307.6 L 41.7 307.6 C 41.5 307.6 41.4 307.7 41.4 307.9 L 41.4 315.5 C 41.4 315.7 41.5 315.8 41.7 315.8 L 45.8 315.8 C 46 315.8 46.1 315.7 46.1 315.5 Z"/>
    <rect x="44" y="324.8" class="st24" width="4.5" height="1.8"/>
    <rect x="43.8" y="328.8" class="st24" width="4.5" height="1.8"/>
    <rect x="38.9" y="326.7" class="st24" width="4.5" height="1.8"/>
    <path class="st25" d="M 46.1 331.4 L 46.1 323.8 C 46.1 323.6 46 323.5 45.8 323.5 L 41.7 323.5 C 41.5 323.5 41.4 323.6 41.4 323.8 L 41.4 331.4 C 41.4 331.6 41.5 331.7 41.7 331.7 L 45.8 331.7 C 46 331.7 46.1 331.6 46.1 331.4 Z"/>
    <rect x="30.3" y="157.2" class="st24" width="4.5" height="1.8"/>
    <rect x="30.5" y="161.2" class="st24" width="4.5" height="1.8"/>
    <rect x="35.4" y="159.1" class="st24" width="4.5" height="1.8"/>
    <path class="st25" d="M 32.8 163.9 L 32.8 156.3 C 32.8 156.1 32.9 156 33.1 156 L 37.2 156 C 37.4 156 37.5 156.1 37.5 156.3 L 37.5 163.9 C 37.5 164.1 37.4 164.2 37.2 164.2 L 33.1 164.2 C 32.9 164.2 32.8 164 32.8 163.9 Z"/>
    <rect x="30.3" y="139.6" class="st24" width="4.5" height="1.8"/>
    <rect x="30.5" y="143.6" class="st24" width="4.5" height="1.8"/>
    <rect x="35.4" y="141.5" class="st24" width="4.5" height="1.8"/>
    <path class="st25" d="M 32.8 146.3 L 32.8 138.7 C 32.8 138.5 32.9 138.4 33.1 138.4 L 37.2 138.4 C 37.4 138.4 37.5 138.5 37.5 138.7 L 37.5 146.3 C 37.5 146.5 37.4 146.6 37.2 146.6 L 33.1 146.6 C 32.9 146.6 32.8 146.5 32.8 146.3 Z"/>
    <rect x="44" y="148.4" class="st24" width="4.5" height="1.8"/>
    <rect x="43.8" y="152.4" class="st24" width="4.5" height="1.8"/>
    <rect x="38.9" y="150.3" class="st24" width="4.5" height="1.8"/>
    <path class="st25" d="M 46.1 155.1 L 46.1 147.5 C 46.1 147.3 46 147.2 45.8 147.2 L 41.7 147.2 C 41.5 147.2 41.4 147.3 41.4 147.5 L 41.4 155.1 C 41.4 155.3 41.5 155.4 41.7 155.4 L 45.8 155.4 C 46 155.4 46.1 155.3 46.1 155.1 Z"/>
    <rect x="44" y="164.3" class="st24" width="4.5" height="1.8"/>
    <rect x="43.8" y="168.3" class="st24" width="4.5" height="1.8"/>
    <rect x="38.9" y="166.2" class="st24" width="4.5" height="1.8"/>
    <path class="st25" d="M 46.1 171 L 46.1 163.4 C 46.1 163.2 46 163.1 45.8 163.1 L 41.7 163.1 C 41.5 163.1 41.4 163.2 41.4 163.4 L 41.4 171 C 41.4 171.2 41.5 171.3 41.7 171.3 L 45.8 171.3 C 46 171.3 46.1 171.1 46.1 171 Z"/>
    <ellipse class="st26" cx="360.483" cy="366.7" rx="12" ry="12"/>
    <ellipse class="st26" cx="361.597" cy="113.5" rx="12" ry="12"/>
    <ellipse class="st26" cx="46" cy="368.1" rx="12" ry="12"/>
    <ellipse class="st26" cx="44.8" cy="114.9" rx="12" ry="12"/>
    <ellipse class="st27" cx="361.697" cy="113.5" rx="10.9" ry="10.9"/>
    <ellipse class="st27" cx="360.183" cy="366.8" rx="10.9" ry="10.9"/>
    <path class="st28" d="M 368.883 367.2 C 368.883 367.2 368.683 367 368.383 366.5 C 368.083 366.1 367.583 365.5 367.083 364.9 C 366.583 364.3 365.983 363.6 365.383 362.8 C 365.083 362.4 364.783 362 364.483 361.7 C 364.183 361.3 363.783 360.9 363.383 360.7 C 362.983 360.4 362.483 360.2 362.083 360 C 361.883 359.9 361.583 359.8 361.383 359.7 C 361.183 359.6 360.883 359.6 360.683 359.5 C 360.183 359.4 359.683 359.4 359.283 359.3 C 358.783 359.2 358.383 359.3 357.983 359.3 C 357.583 359.3 357.183 359.3 356.783 359.4 C 356.483 359.5 356.183 359.5 355.883 359.6 C 355.383 359.7 355.083 359.7 355.083 359.7 L 354.983 359.4 C 354.983 359.4 355.283 359.3 355.683 359.1 C 355.883 359 356.183 358.9 356.583 358.7 C 356.883 358.5 357.283 358.4 357.783 358.3 C 358.183 358.2 358.683 358 359.183 358 C 359.683 358 360.283 357.9 360.883 357.9 C 361.483 358 362.083 357.9 362.683 358.1 C 363.283 358.3 363.983 358.4 364.483 358.8 C 365.083 359.1 365.683 359.4 366.183 359.8 C 366.683 360.2 367.183 360.6 367.583 361.1 C 367.983 361.6 368.283 362.1 368.483 362.6 C 368.783 363.1 368.883 363.6 368.983 364 C 369.083 364.5 369.183 364.9 369.183 365.3 C 369.183 365.7 369.283 366 369.183 366.3 C 369.183 366.9 369.083 367.2 369.083 367.2 L 368.883 367.2 Z"/>
    <ellipse class="st27" cx="45" cy="114.9" rx="10.9" ry="10.9"/>
    <path class="st28" d="M 53.6 115.3 C 53.6 115.3 53.4 115.1 53.1 114.6 C 52.8 114.2 52.3 113.6 51.8 113 C 51.3 112.4 50.7 111.7 50.1 110.9 C 49.8 110.5 49.5 110.1 49.2 109.8 C 48.9 109.4 48.5 109 48.1 108.8 C 47.7 108.5 47.2 108.3 46.8 108.1 C 46.6 108 46.3 107.9 46.1 107.8 C 45.9 107.7 45.6 107.7 45.4 107.6 C 44.9 107.5 44.4 107.5 44 107.4 C 43.5 107.3 43.1 107.4 42.7 107.4 C 42.3 107.4 41.9 107.4 41.5 107.5 C 41.2 107.6 40.9 107.6 40.6 107.7 C 40.1 107.8 39.8 107.8 39.8 107.8 L 39.7 107.5 C 39.7 107.5 40 107.4 40.4 107.2 C 40.6 107.1 40.9 107 41.3 106.8 C 41.6 106.6 42 106.5 42.5 106.4 C 42.9 106.3 43.4 106.1 43.9 106.1 C 44.4 106.1 45 106 45.6 106 C 46.2 106.1 46.8 106 47.4 106.2 C 48 106.4 48.7 106.5 49.2 106.9 C 49.8 107.2 50.4 107.5 50.9 107.9 C 51.4 108.3 51.9 108.7 52.3 109.2 C 52.7 109.7 53 110.2 53.2 110.7 C 53.5 111.2 53.6 111.7 53.7 112.1 C 53.8 112.6 53.9 113 53.9 113.4 C 53.9 113.8 54 114.1 53.9 114.4 C 53.9 115 53.8 115.3 53.8 115.3 L 53.6 115.3 Z"/>
    <ellipse class="st27" cx="46.2" cy="368.7" rx="10.9" ry="10.9"/>
    <path class="st28" d="M 54.8 369.1 C 54.8 369.1 54.6 368.9 54.3 368.4 C 54 368 53.5 367.4 53 366.8 C 52.5 366.2 51.9 365.5 51.3 364.7 C 51 364.3 50.7 363.9 50.4 363.6 C 50.1 363.2 49.7 362.8 49.3 362.6 C 48.9 362.3 48.4 362.1 48 361.9 C 47.8 361.8 47.5 361.7 47.3 361.6 C 47.1 361.5 46.8 361.5 46.6 361.4 C 46.1 361.3 45.6 361.3 45.2 361.2 C 44.7 361.1 44.3 361.2 43.9 361.2 C 43.5 361.2 43.1 361.2 42.7 361.3 C 42.4 361.4 42.1 361.4 41.8 361.5 C 41.3 361.6 41 361.6 41 361.6 L 40.9 361.3 C 40.9 361.3 41.2 361.2 41.6 361 C 41.8 360.9 42.1 360.8 42.5 360.6 C 42.8 360.4 43.2 360.3 43.7 360.2 C 44.1 360.1 44.6 359.9 45.1 359.9 C 45.6 359.9 46.2 359.8 46.8 359.8 C 47.4 359.9 48 359.8 48.6 360 C 49.2 360.2 49.9 360.3 50.4 360.7 C 51 361 51.6 361.3 52.1 361.7 C 52.6 362.1 53.1 362.5 53.5 363 C 53.9 363.5 54.2 364 54.4 364.5 C 54.7 365 54.8 365.5 54.9 365.9 C 55 366.4 55.1 366.8 55.1 367.2 C 55.1 367.6 55.2 367.9 55.1 368.2 C 55.1 368.8 55 369.1 55 369.1 L 54.8 369.1 Z"/>
    <path class="st23" d="M 302.397 253.1 L 290.897 253.1 C 289.997 253.1 289.197 252.4 289.197 251.4 L 289.197 241.5 C 289.197 240.6 289.897 239.8 290.897 239.8 L 302.397 239.8 C 303.297 239.8 304.097 240.5 304.097 241.5 L 304.097 251.4 C 303.997 252.3 303.297 253.1 302.397 253.1 Z"/>
    <path class="st23" d="M 357.397 229.6 L 348.997 229.6 C 348.397 229.6 347.997 229.1 347.997 228.6 L 347.997 221.3 C 347.997 220.7 348.497 220.3 348.997 220.3 L 357.397 220.3 C 357.997 220.3 358.397 220.8 358.397 221.3 L 358.397 228.6 C 358.397 229.1 357.997 229.6 357.397 229.6 Z"/>
    <path class="st23" d="M 362.497 268.5 L 348.997 268.5 C 348.397 268.5 347.997 268 347.997 267.5 L 347.997 255.6 C 347.997 255 348.497 254.6 348.997 254.6 L 362.497 254.6 C 363.097 254.6 363.497 255.1 363.497 255.6 L 363.497 267.5 C 363.497 268.1 363.097 268.5 362.497 268.5 Z"/>
    <rect x="331.997" y="158.4" class="st24" width="5.4" height="2.1"/>
    <rect x="331.997" y="162.5" class="st24" width="5.4" height="2.1"/>
    <rect x="331.997" y="166.2" class="st24" width="5.4" height="1.7"/>
    <rect x="331.997" y="169.7" class="st24" width="5.4" height="2"/>
    <rect x="331.997" y="173.2" class="st24" width="5.4" height="2"/>
    <rect x="331.997" y="176.7" class="st24" width="5.4" height="2"/>
    <rect x="358.697" y="158.4" class="st24" width="5.4" height="2.1"/>
    <rect x="358.697" y="162.5" class="st24" width="5.4" height="2.1"/>
    <rect x="358.697" y="166.2" class="st24" width="5.4" height="1.7"/>
    <rect x="358.697" y="169.7" class="st24" width="5.4" height="2"/>
    <rect x="358.697" y="173.2" class="st24" width="5.4" height="2"/>
    <rect x="358.697" y="176.7" class="st24" width="5.4" height="2"/>
    <path class="st23" d="M 357.597 180.4 L 338.297 180.4 C 337.297 180.4 336.497 179.6 336.497 178.6 L 336.497 159.3 C 336.497 158.3 337.297 157.5 338.297 157.5 L 357.597 157.5 C 358.597 157.5 359.397 158.3 359.397 159.3 L 359.397 178.6 C 359.297 179.6 358.597 180.4 357.597 180.4 Z"/>
    <rect x="287.997" y="155.6" class="st24" width="5.4" height="2.1"/>
    <rect x="287.997" y="159.7" class="st24" width="5.4" height="2.1"/>
    <rect x="287.997" y="163.4" class="st24" width="5.4" height="1.7"/>
    <rect x="287.997" y="166.9" class="st24" width="5.4" height="2"/>
    <rect x="287.997" y="170.4" class="st24" width="5.4" height="2"/>
    <rect x="287.997" y="173.9" class="st24" width="5.4" height="2"/>
    <rect x="314.697" y="155.6" class="st24" width="5.4" height="2.1"/>
    <rect x="314.697" y="159.7" class="st24" width="5.4" height="2.1"/>
    <rect x="314.697" y="163.4" class="st24" width="5.4" height="1.7"/>
    <rect x="314.697" y="166.9" class="st24" width="5.4" height="2"/>
    <rect x="314.697" y="170.4" class="st24" width="5.4" height="2"/>
    <rect x="314.697" y="173.9" class="st24" width="5.4" height="2"/>
    <rect x="287.997" y="177.5" class="st24" width="5.4" height="2"/>
    <rect x="287.997" y="180.9" class="st24" width="5.4" height="2"/>
    <rect x="314.697" y="177.5" class="st24" width="5.4" height="2"/>
    <rect x="314.697" y="180.9" class="st24" width="5.4" height="2"/>
    <rect x="287.997" y="184.8" class="st24" width="5.4" height="2"/>
    <rect x="314.697" y="184.8" class="st24" width="5.4" height="2"/>
    <path class="st30" d="M 313.197 187 L 294.597 187 C 293.397 187 292.497 186.1 292.497 184.9 L 292.497 156.9 C 292.497 155.7 293.397 154.8 294.597 154.8 L 313.197 154.8 C 314.397 154.8 315.297 155.7 315.297 156.9 L 315.297 184.9 C 315.297 186.1 314.397 187 313.197 187 Z"/>
    <circle class="st31" cx="322.197" cy="202.6" r="6.8"/>
    <circle class="st32" cx="322.197" cy="202.6" r="3.6"/>
    <circle class="st31" cx="71.2" cy="377.2" r="6.8"/>
    <circle class="st32" cx="71.2" cy="377.2" r="3.6"/>
    <rect x="308.097" y="231.7" class="st33" width="5.1" height="10.9"/>
    <path class="st24" d="M 313.197 235 L 308.097 235 L 308.097 232.3 C 308.097 232 308.297 231.8 308.597 231.8 L 312.597 231.8 C 312.897 231.8 313.097 232 313.097 232.3 L 313.197 235 L 313.197 235 Z"/>
    <path class="st24" d="M 312.597 242.6 L 308.697 242.6 C 308.397 242.6 308.097 242.3 308.097 242 L 308.097 240.1 L 313.197 240.1 L 313.197 242 C 313.197 242.3 312.897 242.6 312.597 242.6 Z"/>
    <rect x="356.197" y="138.6" class="st33" width="10.9" height="5.1"/>
    <path class="st24" d="M 359.397 138.6 L 359.397 143.7 L 356.697 143.7 C 356.397 143.7 356.197 143.5 356.197 143.2 L 356.197 139.2 C 356.197 138.9 356.397 138.7 356.697 138.7 L 359.397 138.6 L 359.397 138.6 Z"/>
    <path class="st24" d="M 366.997 139.2 L 366.997 143.1 C 366.997 143.4 366.697 143.7 366.397 143.7 L 364.497 143.7 L 364.497 138.6 L 366.397 138.6 C 366.697 138.6 366.997 138.9 366.997 139.2 Z"/>
    <rect x="65.7" y="354.6" class="st33" width="10.9" height="5.1"/>
    <path class="st24" d="M 68.9 354.6 L 68.9 359.7 L 66.2 359.7 C 65.9 359.7 65.7 359.5 65.7 359.2 L 65.7 355.2 C 65.7 354.9 65.9 354.7 66.2 354.7 L 68.9 354.6 L 68.9 354.6 Z"/>
    <path class="st24" d="M 76.6 355.2 L 76.6 359.1 C 76.6 359.4 76.3 359.7 76 359.7 L 74.1 359.7 L 74.1 354.6 L 76 354.6 C 76.3 354.6 76.6 354.9 76.6 355.2 Z"/>
    <rect x="27.3" y="329.5" class="st33" width="6" height="12.6"/>
    <path class="st24" d="M 27.3 338.4 L 33.3 338.4 L 33.3 341.5 C 33.3 341.9 33 342.1 32.7 342.1 L 28 342.1 C 27.6 342.1 27.4 341.8 27.4 341.5 L 27.3 338.4 L 27.3 338.4 Z"/>
    <path class="st24" d="M 28 329.5 L 32.6 329.5 C 33 329.5 33.3 329.8 33.3 330.2 L 33.3 332.5 L 27.3 332.5 L 27.3 330.2 C 27.3 329.8 27.6 329.5 28 329.5 Z"/>
    <rect x="367.397" y="264" class="st33" width="5.1" height="10.9"/>
    <path class="st24" d="M 372.497 267.2 L 367.397 267.2 L 367.397 264.5 C 367.397 264.2 367.597 264 367.897 264 L 371.897 264 C 372.197 264 372.397 264.2 372.397 264.5 L 372.497 267.2 L 372.497 267.2 Z"/>
    <path class="st24" d="M 371.897 274.8 L 367.997 274.8 C 367.697 274.8 367.397 274.5 367.397 274.2 L 367.397 272.3 L 372.497 272.3 L 372.497 274.2 C 372.497 274.6 372.197 274.8 371.897 274.8 Z"/>
    <path class="st36" d="M 266.297 341.5 C 266.597 341.5 266.897 341.7 267.197 341.8 C 267.897 341.6 268.097 341.9 268.397 342 C 269.197 341.8 269.397 342.2 269.697 342.5 L 270.097 342.5 C 271.197 343.2 271.797 344.5 271.997 345.2 C 272.197 344.5 272.797 343.2 273.897 342.5 L 274.297 342.5 C 274.697 342.1 274.897 341.8 275.597 342 C 275.897 341.9 276.097 341.6 276.797 341.8 C 277.197 341.7 277.597 341.3 278.197 341.8 C 278.697 341.6 279.097 341.6 279.597 341.9 C 280.197 341.8 280.497 342 280.597 342.2 C 280.697 342.2 281.697 342.1 282.097 342.7 C 283.197 342.6 283.497 343.3 283.097 344 C 283.297 344.3 283.497 344.7 282.997 345.3 C 283.197 345.7 283.097 346 282.597 346.5 C 282.697 347 282.497 347.3 282.097 347.6 C 282.197 348.3 281.497 348.7 281.297 348.8 C 281.197 349.2 281.097 349.6 280.297 349.8 C 280.197 350.4 279.697 350.5 279.197 350.6 C 280.697 351.5 282.097 352.6 281.997 355.5 L 282.197 355.9 C 283.997 357 285.497 360.4 283.097 363.1 C 282.897 364 282.697 364.6 282.397 365.3 C 281.997 368.1 279.697 369.4 278.997 369.5 C 278.097 370.2 277.097 370.8 275.797 371.3 C 274.597 372.6 273.197 373 271.897 373 C 271.897 373 271.897 373 271.797 373 C 270.397 373 269.097 372.5 267.897 371.3 C 266.597 370.8 265.597 370.2 264.697 369.5 C 264.097 369.3 261.697 368 261.397 365.3 C 261.197 364.6 260.897 364 260.697 363.1 C 258.197 360.3 259.797 356.9 261.597 355.9 L 261.797 355.5 C 261.797 352.7 263.097 351.5 264.697 350.6 C 264.197 350.5 263.797 350.4 263.597 349.8 C 262.797 349.6 262.597 349.2 262.597 348.8 C 262.397 348.7 261.697 348.3 261.797 347.6 C 261.397 347.3 261.197 347 261.297 346.5 C 260.897 346 260.797 345.7 260.897 345.3 C 260.397 344.7 260.597 344.3 260.797 344 C 260.397 343.3 260.797 342.6 261.797 342.7 C 262.197 342.1 263.097 342.2 263.297 342.2 C 263.497 342 263.697 341.8 264.297 341.9 C 264.697 341.5 265.197 341.6 265.697 341.8 C 265.997 341.6 266.197 341.5 266.297 341.5 L 266.297 341.5 Z M 264.097 344.4 C 266.497 345.2 268.597 346.2 270.297 347.7 C 272.397 346.7 270.997 344.3 269.897 343.3 C 269.797 343.6 269.797 343.7 269.697 343.8 C 269.397 343.4 269.097 343.1 268.697 342.7 C 268.697 342.9 268.797 343.1 268.497 343.3 C 268.297 343 267.997 342.7 267.597 342.5 C 267.797 342.8 267.597 342.9 267.497 343.1 C 267.197 342.8 266.897 342.6 266.297 342.3 C 266.497 342.5 266.697 342.7 266.397 342.9 C 266.097 342.7 265.797 342.5 264.997 342.4 C 265.197 342.6 265.497 342.8 265.297 343 C 264.897 342.8 264.397 342.7 263.897 342.7 C 264.097 342.9 264.297 343.1 264.097 343.2 C 263.697 343.1 263.097 342.9 262.497 343 L 262.897 343.4 C 262.897 343.4 261.997 343.4 261.397 343.4 C 261.597 343.7 261.797 344 261.997 344.5 C 261.897 344.6 261.597 344.5 261.397 344.5 C 261.697 345.1 262.197 345.3 262.297 345.5 C 262.097 345.6 261.897 345.6 261.597 345.5 C 261.797 345.9 262.197 346.2 262.597 346.6 C 262.497 346.7 262.397 346.7 261.997 346.7 C 262.297 347 262.697 347.3 263.097 347.6 C 262.997 347.7 262.697 347.7 262.497 347.7 C 262.897 348.1 263.397 348.3 263.897 348.6 C 263.697 348.8 263.497 348.7 263.297 348.7 C 263.597 349 264.197 349.1 264.797 349.3 C 264.697 349.5 264.597 349.5 264.397 349.6 C 264.997 349.9 265.797 349.8 266.097 349.9 C 265.997 350.1 265.897 350.2 265.697 350.3 C 266.597 350.4 269.197 350.3 269.697 348.3 C 268.897 347.2 267.097 345.9 264.097 344.4 L 264.097 344.4 Z M 280.197 344.4 C 277.197 345.9 275.397 347.2 274.497 348.2 C 274.997 350.1 277.597 350.2 278.497 350.2 C 278.297 350.1 278.097 350 278.097 349.8 C 278.297 349.6 279.197 349.8 279.797 349.5 C 279.597 349.5 279.497 349.4 279.397 349.2 C 279.997 349 280.497 348.9 280.897 348.6 C 280.697 348.6 280.497 348.6 280.297 348.5 C 280.797 348.2 281.297 348 281.697 347.6 C 281.397 347.6 281.197 347.6 281.097 347.5 C 281.597 347.2 281.897 346.9 282.297 346.6 C 281.897 346.6 281.797 346.6 281.697 346.5 C 281.997 346.2 282.497 345.9 282.697 345.4 C 282.397 345.5 282.197 345.5 281.997 345.4 C 282.097 345.1 282.597 345 282.897 344.4 C 282.597 344.4 282.297 344.5 282.297 344.4 C 282.397 343.9 282.697 343.6 282.897 343.3 C 282.297 343.3 281.397 343.3 281.397 343.3 L 281.797 342.9 C 281.197 342.7 280.597 342.9 280.197 343.1 C 279.997 342.9 280.197 342.8 280.397 342.6 C 279.897 342.7 279.497 342.8 278.997 342.9 C 278.797 342.7 279.097 342.5 279.297 342.3 C 278.497 342.4 278.197 342.6 277.897 342.8 C 277.697 342.6 277.897 342.4 277.997 342.2 C 277.397 342.4 277.097 342.7 276.797 343 C 276.697 342.9 276.497 342.8 276.697 342.4 C 276.297 342.6 275.997 342.9 275.797 343.2 C 275.497 343 275.597 342.8 275.597 342.6 C 275.197 342.9 274.897 343.3 274.597 343.7 C 274.497 343.7 274.497 343.5 274.397 343.2 C 273.397 344.2 271.897 346.6 273.997 347.6 C 275.697 346.2 277.797 345.2 280.197 344.4 L 280.197 344.4 Z M 275.797 364.2 C 275.797 362.4 274.197 360.9 272.197 360.9 C 270.197 360.9 268.597 362.4 268.597 364.2 C 268.597 364.2 268.597 364.2 268.597 364.2 C 268.597 366 270.197 367.5 272.197 367.5 C 274.197 367.5 275.797 366.1 275.797 364.2 C 275.797 364.2 275.797 364.2 275.797 364.2 Z M 270.097 354.8 C 268.597 353.8 266.397 354.5 265.297 356.2 C 264.097 357.9 264.397 360.1 265.897 361.1 L 265.897 361.1 C 267.397 362.1 269.597 361.4 270.697 359.7 C 271.797 358 271.597 355.8 270.097 354.8 L 270.097 354.8 Z M 274.097 354.7 C 272.597 355.7 272.297 357.9 273.497 359.6 C 274.697 361.3 276.797 362 278.297 361 L 278.297 361 C 279.797 360 280.097 357.8 278.897 356.1 C 277.697 354.4 275.597 353.7 274.097 354.7 L 274.097 354.7 Z M 261.797 362.4 C 263.097 363 264.197 355.9 262.597 356.4 C 259.897 357.9 260.297 361.3 261.797 362.4 Z M 281.297 356.3 C 279.697 355.9 280.697 362.9 282.097 362.3 C 283.497 361.2 283.997 357.9 281.297 356.3 L 281.297 356.3 Z M 280.797 355.3 C 280.897 352.3 278.597 350.7 275.797 351.1 C 274.797 351.3 280.697 356.4 280.797 355.3 Z M 268.097 351 C 265.297 350.5 262.997 352.2 263.097 355.2 C 263.097 356.3 269.097 351.2 268.097 351 Z M 272.097 350.3 C 270.397 350.3 268.797 351.5 268.797 352.2 C 268.797 353.1 270.097 354 272.097 354 C 274.097 354 275.397 353.3 275.397 352.4 C 275.397 351.4 273.597 350.3 272.097 350.3 L 272.097 350.3 Z M 272.197 368.6 C 270.797 368.6 268.497 369.2 268.597 369.9 C 268.597 370.4 270.297 372 272.097 371.9 C 273.797 371.9 275.597 370.4 275.597 369.7 C 275.597 369 273.597 368.5 272.197 368.6 L 272.197 368.6 Z M 266.797 364.4 C 265.597 363 264.097 362.2 263.097 362.8 C 262.397 363.3 262.297 365 263.297 366.7 C 264.697 368.7 266.697 368.9 267.497 368.4 C 268.297 367.8 267.797 365.7 266.797 364.4 L 266.797 364.4 Z M 277.297 364.1 C 276.197 365.4 275.597 367.7 276.397 368.5 C 277.197 369.1 279.297 369 280.797 366.9 C 281.897 365.5 281.597 363.1 280.897 362.5 C 279.997 361.7 278.597 362.6 277.297 364.1 L 277.297 364.1 Z"/>
    <path class="st28" d="M 369.309 114.642 C 369.309 114.642 369.109 114.442 368.809 113.942 C 368.509 113.542 368.009 112.942 367.509 112.342 C 367.009 111.742 366.409 111.042 365.809 110.242 C 365.509 109.842 365.209 109.442 364.909 109.142 C 364.609 108.742 364.209 108.342 363.809 108.142 C 363.409 107.842 362.909 107.642 362.509 107.442 C 362.309 107.342 362.009 107.242 361.809 107.142 C 361.609 107.042 361.309 107.042 361.109 106.942 C 360.609 106.842 360.109 106.842 359.709 106.742 C 359.209 106.642 358.809 106.742 358.409 106.742 C 358.009 106.742 357.609 106.742 357.209 106.842 C 356.909 106.942 356.609 106.942 356.309 107.042 C 355.809 107.142 355.509 107.142 355.509 107.142 L 355.409 106.842 C 355.409 106.842 355.709 106.742 356.109 106.542 C 356.309 106.442 356.609 106.342 357.009 106.142 C 357.309 105.942 357.709 105.842 358.209 105.742 C 358.609 105.642 359.109 105.442 359.609 105.442 C 360.109 105.442 360.709 105.342 361.309 105.342 C 361.909 105.442 362.509 105.342 363.109 105.542 C 363.709 105.742 364.409 105.842 364.909 106.242 C 365.509 106.542 366.109 106.842 366.609 107.242 C 367.109 107.642 367.609 108.042 368.009 108.542 C 368.409 109.042 368.709 109.542 368.909 110.042 C 369.209 110.542 369.309 111.042 369.409 111.442 C 369.509 111.942 369.609 112.342 369.609 112.742 C 369.609 113.142 369.709 113.442 369.609 113.742 C 369.609 114.342 369.509 114.642 369.509 114.642 L 369.309 114.642 Z"/>
  </g>
</svg>