<?xml version="1.0" encoding="utf-8"?>
<svg width="335.5" height="305.9000244140625" viewBox="23.1 90.4 335.5 305.9" xmlns="http://www.w3.org/2000/svg">
  <defs>
    <style type="text/css">
            .leds,
            .rled,
            .gled,
            .bled {
              mix-blend-mode: screen;
            }

            /*Stop blending for off and kled*/
            .kled,
            .oled {
              mix-blend-mode: normal;
            }
            /*Colored LEDs should glow*/

            .rled,
            .gled,
            .bled {
              filter: url(#glow);
            }
            /* Rectangles under the LEDs */

            .ledrect {
              filter: url(#shadow);
              fill: url(#ledrect);
            }

            .st0 {
              fill: #309A5D;
              stroke: #004537;
              stroke-width: 2.1959;
              stroke-miterlimit: 10;
            }

            .st1 {
              opacity: 0.15;
            }

            .st2 {
              opacity: 0.15;
              enable-background: new;
            }

            .st3 {
              fill: url(#XMLID_8_);
            }

            .st4 {
              opacity: 0.33;
              clip-path: url(#SVGID_2_);
              fill: url(#SVGID_3_);
              enable-background: new;
            }

            .st5 {
              opacity: 0.33;
              clip-path: url(#SVGID_5_);
              fill: url(#SVGID_6_);
              enable-background: new;
            }

            .st6 {
              fill: #4D4D4D;
              stroke: #333333;
              stroke-width: 1.0637;
              stroke-miterlimit: 10;
            }

            .st7 {
              fill: #20262E;
            }

            .st8 {
              fill: #B3B3B3;
            }

            .st9 {
              fill: none;
              stroke: #666666;
              stroke-width: 1.1067;
              stroke-miterlimit: 10;
            }

            .st10 {
              fill: none;
              stroke: #666666;
              stroke-width: 1.0637;
              stroke-miterlimit: 10;
            }

            .st11 {
              fill: none;
              stroke: #666666;
              stroke-width: 2.4169;
              stroke-miterlimit: 10;
            }

            .st12 {
              fill: #E6E6E6;
            }

            .st13 {
              clip-path: url(#SVGID_8_);
              fill: #FFFFFF;
              fill-opacity: 0.25;
            }

            .st14 {
              clip-path: url(#SVGID_10_);
              fill: #FFFFFF;
              fill-opacity: 0.25;
            }

            .st15 {
              fill: none;
              stroke: #666666;
              stroke-width: 1.1336;
              stroke-miterlimit: 10;
            }

            .st16 {
              clip-path: url(#SVGID_12_);
              fill: #FFFFFF;
              fill-opacity: 0.25;
            }

            .st17 {
              clip-path: url(#SVGID_14_);
              fill: #FFFFFF;
              fill-opacity: 0.25;
            }

            .st18 {
              clip-path: url(#SVGID_16_);
              fill: #FFFFFF;
              fill-opacity: 0.25;
            }

            .st19 {
              clip-path: url(#SVGID_18_);
              fill: #FFFFFF;
              fill-opacity: 0.25;
            }

            .st20 {
              fill: none;
              stroke: #FFDB13;
              stroke-width: 5.8236;
              stroke-miterlimit: 10;
            }

            .st21 {
              fill: none;
              stroke: #FFDB13;
              stroke-width: 5.6295;
              stroke-miterlimit: 10;
            }

            .st22 {
              fill: none;
              stroke: #FFDB13;
              stroke-width: 5.5324;
              stroke-miterlimit: 10;
            }

            .st23 {
              fill: #575756;
              stroke: #3C3C3B;
              stroke-width: 1.1099;
              stroke-miterlimit: 10;
            }

            .st24 {
              fill: #BDBEC2;
            }

            .st25 {
              fill: #575756;
              stroke: #3C3C3B;
              stroke-width: 0.2469;
              stroke-miterlimit: 10;
            }

            .st26 {
              fill: none;
              stroke: #FFDB13;
              stroke-width: 6.2377;
              stroke-miterlimit: 10;
            }

            .st27 {
              fill: #B3B3B3;
              stroke: #666666;
              stroke-width: 0.8999;
              stroke-miterlimit: 10;
            }

            .st28 {
              opacity: 0.25;
              fill: #FFFFFF;
              enable-background: new;
            }

            .st29 {
              fill: #333333;
            }

            .st30 {
              fill: #575756;
              stroke: #3C3C3B;
              stroke-width: 1.3186;
              stroke-miterlimit: 10;
            }

            .st31 {
              fill: #8E5F41;
            }

            .st32 {
              fill: #F29F6A;
            }

            .st33 {
              fill: #B89A5D;
            }

            .st34 {
              opacity: 0.4;
            }

            .st35 {
              fill: #575756;
            }

            .st36 {
              fill: #F5F5F5;
            }

            .st37 {
              fill: url(#bigrect);
            }

            .st38 {
              filter: url(#shadow);
              fill: url(#ledrect);
            }

            .st39 {
              opacity: 1;
              fill: black;
            }

            /*Ignore dark LED circles that turned into white rings on blend */
            .st40 {
              fill: #968E87;
              opacity: 0;
            }

            .st41 {
              opacity: 0.1;
              fill: #1D1D1B;
            }

            .st42 {
              opacity: 0.15;
              fill: #1D1D1B;
            }

            .st43 {
              fill: #3F3F3F;
              stroke: #333333;
              stroke-width: 1.9404;
              stroke-miterlimit: 10;
            }

            .st44 {
              fill: #484848;
              stroke: #333333;
              stroke-width: 1.8277;
              stroke-miterlimit: 10;
            }

            .st45 {
              opacity: 0.25;
              fill: #1D1D1B;
            }

            .st46 {
              fill: #414140;
              stroke: #333333;
              stroke-width: 1.7828;
              stroke-miterlimit: 10;
            }

            .st47 {
              fill: #484848;
              stroke: #333333;
              stroke-width: 2.1136;
              stroke-miterlimit: 10;
            }
          </style>
  </defs>
  <g>
    <path class="st0" d="M 23.758 395.34 L 23.601 91.145 C 34.495 89.337 358.456 90.5 358.456 90.5 C 359.021 111.131 358.186 395.553 358.186 395.553 C 342.581 396.732 39.135 395.905 23.758 395.34 Z" style="stroke: rgb(48, 154, 93);"/>
    <ellipse class="st0" cx="44.5" cy="114.9" rx="10.9" ry="10.9"/>
    <ellipse class="st0" cx="45.7" cy="368.1" rx="10.9" ry="10.9"/>
    <ellipse class="st0" cx="338.2" cy="366.7" rx="10.9" ry="10.9"/>
    <ellipse class="st0" cx="337" cy="113.5" rx="10.9" ry="10.9"/>
    <ellipse class="st20" cx="336.3" cy="113.5" rx="11.2" ry="11.2"/>
    <ellipse class="st21" cx="46.3" cy="368.3" rx="10.9" ry="10.9"/>
    <ellipse class="st22" cx="44.9" cy="114.7" rx="10.7" ry="10.7"/>
    <path class="st23" d="M 136.1 371 L 136 345.6 C 136 344.9 136.5 344.4 137.2 344.4 L 162.6 344.3 C 163.3 344.3 163.8 344.8 163.8 345.5 L 163.9 370.9 C 163.9 371.6 163.4 372.1 162.7 372.1 L 137.3 372.2 C 136.7 372.3 136.1 371.7 136.1 371 Z"/>
    <rect x="30.3" y="317.7" class="st24" width="4.5" height="1.8"/>
    <rect x="30.5" y="321.7" class="st24" width="4.5" height="1.8"/>
    <rect x="35.4" y="319.6" class="st24" width="4.5" height="1.8"/>
    <path class="st25" d="M 32.8 324.3 L 32.8 316.7 C 32.8 316.5 32.9 316.4 33.1 316.4 L 37.2 316.4 C 37.4 316.4 37.5 316.5 37.5 316.7 L 37.5 324.3 C 37.5 324.5 37.4 324.6 37.2 324.6 L 33.1 324.6 C 32.9 324.6 32.8 324.5 32.8 324.3 Z"/>
    <rect x="30.3" y="300.1" class="st24" width="4.5" height="1.8"/>
    <rect x="30.5" y="304.1" class="st24" width="4.5" height="1.8"/>
    <rect x="35.4" y="302" class="st24" width="4.5" height="1.8"/>
    <path class="st25" d="M 32.8 306.7 L 32.8 299.1 C 32.8 298.9 32.9 298.8 33.1 298.8 L 37.2 298.8 C 37.4 298.8 37.5 298.9 37.5 299.1 L 37.5 306.7 C 37.5 306.9 37.4 307 37.2 307 L 33.1 307 C 32.9 307 32.8 306.9 32.8 306.7 Z"/>
    <rect x="44" y="308.9" class="st24" width="4.5" height="1.8"/>
    <rect x="43.8" y="312.9" class="st24" width="4.5" height="1.8"/>
    <rect x="38.9" y="310.8" class="st24" width="4.5" height="1.8"/>
    <path class="st25" d="M 46.1 315.5 L 46.1 307.9 C 46.1 307.7 46 307.6 45.8 307.6 L 41.7 307.6 C 41.5 307.6 41.4 307.7 41.4 307.9 L 41.4 315.5 C 41.4 315.7 41.5 315.8 41.7 315.8 L 45.8 315.8 C 46 315.8 46.1 315.7 46.1 315.5 Z"/>
    <rect x="44" y="324.8" class="st24" width="4.5" height="1.8"/>
    <rect x="43.8" y="328.8" class="st24" width="4.5" height="1.8"/>
    <rect x="38.9" y="326.7" class="st24" width="4.5" height="1.8"/>
    <path class="st25" d="M 46.1 331.4 L 46.1 323.8 C 46.1 323.6 46 323.5 45.8 323.5 L 41.7 323.5 C 41.5 323.5 41.4 323.6 41.4 323.8 L 41.4 331.4 C 41.4 331.6 41.5 331.7 41.7 331.7 L 45.8 331.7 C 46 331.7 46.1 331.6 46.1 331.4 Z"/>
    <rect x="30.3" y="157.2" class="st24" width="4.5" height="1.8"/>
    <rect x="30.5" y="161.2" class="st24" width="4.5" height="1.8"/>
    <rect x="35.4" y="159.1" class="st24" width="4.5" height="1.8"/>
    <path class="st25" d="M 32.8 163.9 L 32.8 156.3 C 32.8 156.1 32.9 156 33.1 156 L 37.2 156 C 37.4 156 37.5 156.1 37.5 156.3 L 37.5 163.9 C 37.5 164.1 37.4 164.2 37.2 164.2 L 33.1 164.2 C 32.9 164.2 32.8 164 32.8 163.9 Z"/>
    <rect x="30.3" y="139.6" class="st24" width="4.5" height="1.8"/>
    <rect x="30.5" y="143.6" class="st24" width="4.5" height="1.8"/>
    <rect x="35.4" y="141.5" class="st24" width="4.5" height="1.8"/>
    <path class="st25" d="M 32.8 146.3 L 32.8 138.7 C 32.8 138.5 32.9 138.4 33.1 138.4 L 37.2 138.4 C 37.4 138.4 37.5 138.5 37.5 138.7 L 37.5 146.3 C 37.5 146.5 37.4 146.6 37.2 146.6 L 33.1 146.6 C 32.9 146.6 32.8 146.5 32.8 146.3 Z"/>
    <rect x="44" y="148.4" class="st24" width="4.5" height="1.8"/>
    <rect x="43.8" y="152.4" class="st24" width="4.5" height="1.8"/>
    <rect x="38.9" y="150.3" class="st24" width="4.5" height="1.8"/>
    <path class="st25" d="M 46.1 155.1 L 46.1 147.5 C 46.1 147.3 46 147.2 45.8 147.2 L 41.7 147.2 C 41.5 147.2 41.4 147.3 41.4 147.5 L 41.4 155.1 C 41.4 155.3 41.5 155.4 41.7 155.4 L 45.8 155.4 C 46 155.4 46.1 155.3 46.1 155.1 Z"/>
    <rect x="44" y="164.3" class="st24" width="4.5" height="1.8"/>
    <rect x="43.8" y="168.3" class="st24" width="4.5" height="1.8"/>
    <rect x="38.9" y="166.2" class="st24" width="4.5" height="1.8"/>
    <path class="st25" d="M 46.1 171 L 46.1 163.4 C 46.1 163.2 46 163.1 45.8 163.1 L 41.7 163.1 C 41.5 163.1 41.4 163.2 41.4 163.4 L 41.4 171 C 41.4 171.2 41.5 171.3 41.7 171.3 L 45.8 171.3 C 46 171.3 46.1 171.1 46.1 171 Z"/>
    <ellipse class="st26" cx="338.5" cy="366.7" rx="12" ry="12"/>
    <ellipse class="st26" cx="337.3" cy="113.5" rx="12" ry="12"/>
    <ellipse class="st26" cx="46" cy="368.1" rx="12" ry="12"/>
    <ellipse class="st26" cx="44.8" cy="114.9" rx="12" ry="12"/>
    <ellipse class="st27" cx="337.4" cy="113.5" rx="10.9" ry="10.9"/>
    <ellipse class="st27" cx="338.2" cy="366.8" rx="10.9" ry="10.9"/>
    <path class="st28" d="M 346.9 367.2 C 346.9 367.2 346.7 367 346.4 366.5 C 346.1 366.1 345.6 365.5 345.1 364.9 C 344.6 364.3 344 363.6 343.4 362.8 C 343.1 362.4 342.8 362 342.5 361.7 C 342.2 361.3 341.8 360.9 341.4 360.7 C 341 360.4 340.5 360.2 340.1 360 C 339.9 359.9 339.6 359.8 339.4 359.7 C 339.2 359.6 338.9 359.6 338.7 359.5 C 338.2 359.4 337.7 359.4 337.3 359.3 C 336.8 359.2 336.4 359.3 336 359.3 C 335.6 359.3 335.2 359.3 334.8 359.4 C 334.5 359.5 334.2 359.5 333.9 359.6 C 333.4 359.7 333.1 359.7 333.1 359.7 L 333 359.4 C 333 359.4 333.3 359.3 333.7 359.1 C 333.9 359 334.2 358.9 334.6 358.7 C 334.9 358.5 335.3 358.4 335.8 358.3 C 336.2 358.2 336.7 358 337.2 358 C 337.7 358 338.3 357.9 338.9 357.9 C 339.5 358 340.1 357.9 340.7 358.1 C 341.3 358.3 342 358.4 342.5 358.8 C 343.1 359.1 343.7 359.4 344.2 359.8 C 344.7 360.2 345.2 360.6 345.6 361.1 C 346 361.6 346.3 362.1 346.5 362.6 C 346.8 363.1 346.9 363.6 347 364 C 347.1 364.5 347.2 364.9 347.2 365.3 C 347.2 365.7 347.3 366 347.2 366.3 C 347.2 366.9 347.1 367.2 347.1 367.2 L 346.9 367.2 Z"/>
    <ellipse class="st27" cx="45" cy="114.9" rx="10.9" ry="10.9"/>
    <path class="st28" d="M 53.6 115.3 C 53.6 115.3 53.4 115.1 53.1 114.6 C 52.8 114.2 52.3 113.6 51.8 113 C 51.3 112.4 50.7 111.7 50.1 110.9 C 49.8 110.5 49.5 110.1 49.2 109.8 C 48.9 109.4 48.5 109 48.1 108.8 C 47.7 108.5 47.2 108.3 46.8 108.1 C 46.6 108 46.3 107.9 46.1 107.8 C 45.9 107.7 45.6 107.7 45.4 107.6 C 44.9 107.5 44.4 107.5 44 107.4 C 43.5 107.3 43.1 107.4 42.7 107.4 C 42.3 107.4 41.9 107.4 41.5 107.5 C 41.2 107.6 40.9 107.6 40.6 107.7 C 40.1 107.8 39.8 107.8 39.8 107.8 L 39.7 107.5 C 39.7 107.5 40 107.4 40.4 107.2 C 40.6 107.1 40.9 107 41.3 106.8 C 41.6 106.6 42 106.5 42.5 106.4 C 42.9 106.3 43.4 106.1 43.9 106.1 C 44.4 106.1 45 106 45.6 106 C 46.2 106.1 46.8 106 47.4 106.2 C 48 106.4 48.7 106.5 49.2 106.9 C 49.8 107.2 50.4 107.5 50.9 107.9 C 51.4 108.3 51.9 108.7 52.3 109.2 C 52.7 109.7 53 110.2 53.2 110.7 C 53.5 111.2 53.6 111.7 53.7 112.1 C 53.8 112.6 53.9 113 53.9 113.4 C 53.9 113.8 54 114.1 53.9 114.4 C 53.9 115 53.8 115.3 53.8 115.3 L 53.6 115.3 Z"/>
    <ellipse class="st27" cx="46.2" cy="368.7" rx="10.9" ry="10.9"/>
    <path class="st28" d="M 54.8 369.1 C 54.8 369.1 54.6 368.9 54.3 368.4 C 54 368 53.5 367.4 53 366.8 C 52.5 366.2 51.9 365.5 51.3 364.7 C 51 364.3 50.7 363.9 50.4 363.6 C 50.1 363.2 49.7 362.8 49.3 362.6 C 48.9 362.3 48.4 362.1 48 361.9 C 47.8 361.8 47.5 361.7 47.3 361.6 C 47.1 361.5 46.8 361.5 46.6 361.4 C 46.1 361.3 45.6 361.3 45.2 361.2 C 44.7 361.1 44.3 361.2 43.9 361.2 C 43.5 361.2 43.1 361.2 42.7 361.3 C 42.4 361.4 42.1 361.4 41.8 361.5 C 41.3 361.6 41 361.6 41 361.6 L 40.9 361.3 C 40.9 361.3 41.2 361.2 41.6 361 C 41.8 360.9 42.1 360.8 42.5 360.6 C 42.8 360.4 43.2 360.3 43.7 360.2 C 44.1 360.1 44.6 359.9 45.1 359.9 C 45.6 359.9 46.2 359.8 46.8 359.8 C 47.4 359.9 48 359.8 48.6 360 C 49.2 360.2 49.9 360.3 50.4 360.7 C 51 361 51.6 361.3 52.1 361.7 C 52.6 362.1 53.1 362.5 53.5 363 C 53.9 363.5 54.2 364 54.4 364.5 C 54.7 365 54.8 365.5 54.9 365.9 C 55 366.4 55.1 366.8 55.1 367.2 C 55.1 367.6 55.2 367.9 55.1 368.2 C 55.1 368.8 55 369.1 55 369.1 L 54.8 369.1 Z"/>
    <path class="st23" d="M 278.1 253.1 L 266.6 253.1 C 265.7 253.1 264.9 252.4 264.9 251.4 L 264.9 241.5 C 264.9 240.6 265.6 239.8 266.6 239.8 L 278.1 239.8 C 279 239.8 279.8 240.5 279.8 241.5 L 279.8 251.4 C 279.7 252.3 279 253.1 278.1 253.1 Z"/>
    <path class="st23" d="M 333.1 229.6 L 324.7 229.6 C 324.1 229.6 323.7 229.1 323.7 228.6 L 323.7 221.3 C 323.7 220.7 324.2 220.3 324.7 220.3 L 333.1 220.3 C 333.7 220.3 334.1 220.8 334.1 221.3 L 334.1 228.6 C 334.1 229.1 333.7 229.6 333.1 229.6 Z"/>
    <path class="st23" d="M 338.2 268.5 L 324.7 268.5 C 324.1 268.5 323.7 268 323.7 267.5 L 323.7 255.6 C 323.7 255 324.2 254.6 324.7 254.6 L 338.2 254.6 C 338.8 254.6 339.2 255.1 339.2 255.6 L 339.2 267.5 C 339.2 268.1 338.8 268.5 338.2 268.5 Z"/>
    <rect x="307.7" y="158.4" class="st24" width="5.4" height="2.1"/>
    <rect x="307.7" y="162.5" class="st24" width="5.4" height="2.1"/>
    <rect x="307.7" y="166.2" class="st24" width="5.4" height="1.7"/>
    <rect x="307.7" y="169.7" class="st24" width="5.4" height="2"/>
    <rect x="307.7" y="173.2" class="st24" width="5.4" height="2"/>
    <rect x="307.7" y="176.7" class="st24" width="5.4" height="2"/>
    <rect x="334.4" y="158.4" class="st24" width="5.4" height="2.1"/>
    <rect x="334.4" y="162.5" class="st24" width="5.4" height="2.1"/>
    <rect x="334.4" y="166.2" class="st24" width="5.4" height="1.7"/>
    <rect x="334.4" y="169.7" class="st24" width="5.4" height="2"/>
    <rect x="334.4" y="173.2" class="st24" width="5.4" height="2"/>
    <rect x="334.4" y="176.7" class="st24" width="5.4" height="2"/>
    <path class="st23" d="M 333.3 180.4 L 314 180.4 C 313 180.4 312.2 179.6 312.2 178.6 L 312.2 159.3 C 312.2 158.3 313 157.5 314 157.5 L 333.3 157.5 C 334.3 157.5 335.1 158.3 335.1 159.3 L 335.1 178.6 C 335 179.6 334.3 180.4 333.3 180.4 Z"/>
    <rect x="263.7" y="155.6" class="st24" width="5.4" height="2.1"/>
    <rect x="263.7" y="159.7" class="st24" width="5.4" height="2.1"/>
    <rect x="263.7" y="163.4" class="st24" width="5.4" height="1.7"/>
    <rect x="263.7" y="166.9" class="st24" width="5.4" height="2"/>
    <rect x="263.7" y="170.4" class="st24" width="5.4" height="2"/>
    <rect x="263.7" y="173.9" class="st24" width="5.4" height="2"/>
    <rect x="290.4" y="155.6" class="st24" width="5.4" height="2.1"/>
    <rect x="290.4" y="159.7" class="st24" width="5.4" height="2.1"/>
    <rect x="290.4" y="163.4" class="st24" width="5.4" height="1.7"/>
    <rect x="290.4" y="166.9" class="st24" width="5.4" height="2"/>
    <rect x="290.4" y="170.4" class="st24" width="5.4" height="2"/>
    <rect x="290.4" y="173.9" class="st24" width="5.4" height="2"/>
    <rect x="263.7" y="177.5" class="st24" width="5.4" height="2"/>
    <rect x="263.7" y="180.9" class="st24" width="5.4" height="2"/>
    <rect x="290.4" y="177.5" class="st24" width="5.4" height="2"/>
    <rect x="290.4" y="180.9" class="st24" width="5.4" height="2"/>
    <rect x="263.7" y="184.8" class="st24" width="5.4" height="2"/>
    <rect x="290.4" y="184.8" class="st24" width="5.4" height="2"/>
    <path class="st30" d="M 288.9 187 L 270.3 187 C 269.1 187 268.2 186.1 268.2 184.9 L 268.2 156.9 C 268.2 155.7 269.1 154.8 270.3 154.8 L 288.9 154.8 C 290.1 154.8 291 155.7 291 156.9 L 291 184.9 C 291 186.1 290.1 187 288.9 187 Z"/>
    <circle class="st31" cx="297.9" cy="202.6" r="6.8"/>
    <circle class="st32" cx="297.9" cy="202.6" r="3.6"/>
    <circle class="st31" cx="71.2" cy="377.2" r="6.8"/>
    <circle class="st32" cx="71.2" cy="377.2" r="3.6"/>
    <rect x="283.8" y="231.7" class="st33" width="5.1" height="10.9"/>
    <path class="st24" d="M 288.9 235 L 283.8 235 L 283.8 232.3 C 283.8 232 284 231.8 284.3 231.8 L 288.3 231.8 C 288.6 231.8 288.8 232 288.8 232.3 L 288.9 235 L 288.9 235 Z"/>
    <path class="st24" d="M 288.3 242.6 L 284.4 242.6 C 284.1 242.6 283.8 242.3 283.8 242 L 283.8 240.1 L 288.9 240.1 L 288.9 242 C 288.9 242.3 288.6 242.6 288.3 242.6 Z"/>
    <rect x="331.9" y="138.6" class="st33" width="10.9" height="5.1"/>
    <path class="st24" d="M 335.1 138.6 L 335.1 143.7 L 332.4 143.7 C 332.1 143.7 331.9 143.5 331.9 143.2 L 331.9 139.2 C 331.9 138.9 332.1 138.7 332.4 138.7 L 335.1 138.6 L 335.1 138.6 Z"/>
    <path class="st24" d="M 342.7 139.2 L 342.7 143.1 C 342.7 143.4 342.4 143.7 342.1 143.7 L 340.2 143.7 L 340.2 138.6 L 342.1 138.6 C 342.4 138.6 342.7 138.9 342.7 139.2 Z"/>
    <rect x="65.7" y="354.6" class="st33" width="10.9" height="5.1"/>
    <path class="st24" d="M 68.9 354.6 L 68.9 359.7 L 66.2 359.7 C 65.9 359.7 65.7 359.5 65.7 359.2 L 65.7 355.2 C 65.7 354.9 65.9 354.7 66.2 354.7 L 68.9 354.6 L 68.9 354.6 Z"/>
    <path class="st24" d="M 76.6 355.2 L 76.6 359.1 C 76.6 359.4 76.3 359.7 76 359.7 L 74.1 359.7 L 74.1 354.6 L 76 354.6 C 76.3 354.6 76.6 354.9 76.6 355.2 Z"/>
    <rect x="27.3" y="329.5" class="st33" width="6" height="12.6"/>
    <path class="st24" d="M 27.3 338.4 L 33.3 338.4 L 33.3 341.5 C 33.3 341.9 33 342.1 32.7 342.1 L 28 342.1 C 27.6 342.1 27.4 341.8 27.4 341.5 L 27.3 338.4 L 27.3 338.4 Z"/>
    <path class="st24" d="M 28 329.5 L 32.6 329.5 C 33 329.5 33.3 329.8 33.3 330.2 L 33.3 332.5 L 27.3 332.5 L 27.3 330.2 C 27.3 329.8 27.6 329.5 28 329.5 Z"/>
    <rect x="343.1" y="264" class="st33" width="5.1" height="10.9"/>
    <path class="st24" d="M 348.2 267.2 L 343.1 267.2 L 343.1 264.5 C 343.1 264.2 343.3 264 343.6 264 L 347.6 264 C 347.9 264 348.1 264.2 348.1 264.5 L 348.2 267.2 L 348.2 267.2 Z"/>
    <path class="st24" d="M 347.6 274.8 L 343.7 274.8 C 343.4 274.8 343.1 274.5 343.1 274.2 L 343.1 272.3 L 348.2 272.3 L 348.2 274.2 C 348.2 274.6 347.9 274.8 347.6 274.8 Z"/>
    <path class="st36" d="M 242 341.5 C 242.3 341.5 242.6 341.7 242.9 341.8 C 243.6 341.6 243.8 341.9 244.1 342 C 244.9 341.8 245.1 342.2 245.4 342.5 L 245.8 342.5 C 246.9 343.2 247.5 344.5 247.7 345.2 C 247.9 344.5 248.5 343.2 249.6 342.5 L 250 342.5 C 250.4 342.1 250.6 341.8 251.3 342 C 251.6 341.9 251.8 341.6 252.5 341.8 C 252.9 341.7 253.3 341.3 253.9 341.8 C 254.4 341.6 254.8 341.6 255.3 341.9 C 255.9 341.8 256.2 342 256.3 342.2 C 256.4 342.2 257.4 342.1 257.8 342.7 C 258.9 342.6 259.2 343.3 258.8 344 C 259 344.3 259.2 344.7 258.7 345.3 C 258.9 345.7 258.8 346 258.3 346.5 C 258.4 347 258.2 347.3 257.8 347.6 C 257.9 348.3 257.2 348.7 257 348.8 C 256.9 349.2 256.8 349.6 256 349.8 C 255.9 350.4 255.4 350.5 254.9 350.6 C 256.4 351.5 257.8 352.6 257.7 355.5 L 257.9 355.9 C 259.7 357 261.2 360.4 258.8 363.1 C 258.6 364 258.4 364.6 258.1 365.3 C 257.7 368.1 255.4 369.4 254.7 369.5 C 253.8 370.2 252.8 370.8 251.5 371.3 C 250.3 372.6 248.9 373 247.6 373 C 247.6 373 247.6 373 247.5 373 C 246.1 373 244.8 372.5 243.6 371.3 C 242.3 370.8 241.3 370.2 240.4 369.5 C 239.8 369.3 237.4 368 237.1 365.3 C 236.9 364.6 236.6 364 236.4 363.1 C 233.9 360.3 235.5 356.9 237.3 355.9 L 237.5 355.5 C 237.5 352.7 238.8 351.5 240.4 350.6 C 239.9 350.5 239.5 350.4 239.3 349.8 C 238.5 349.6 238.3 349.2 238.3 348.8 C 238.1 348.7 237.4 348.3 237.5 347.6 C 237.1 347.3 236.9 347 237 346.5 C 236.6 346 236.5 345.7 236.6 345.3 C 236.1 344.7 236.3 344.3 236.5 344 C 236.1 343.3 236.5 342.6 237.5 342.7 C 237.9 342.1 238.8 342.2 239 342.2 C 239.2 342 239.4 341.8 240 341.9 C 240.4 341.5 240.9 341.6 241.4 341.8 C 241.7 341.6 241.9 341.5 242 341.5 L 242 341.5 Z M 239.8 344.4 C 242.2 345.2 244.3 346.2 246 347.7 C 248.1 346.7 246.7 344.3 245.6 343.3 C 245.5 343.6 245.5 343.7 245.4 343.8 C 245.1 343.4 244.8 343.1 244.4 342.7 C 244.4 342.9 244.5 343.1 244.2 343.3 C 244 343 243.7 342.7 243.3 342.5 C 243.5 342.8 243.3 342.9 243.2 343.1 C 242.9 342.8 242.6 342.6 242 342.3 C 242.2 342.5 242.4 342.7 242.1 342.9 C 241.8 342.7 241.5 342.5 240.7 342.4 C 240.9 342.6 241.2 342.8 241 343 C 240.6 342.8 240.1 342.7 239.6 342.7 C 239.8 342.9 240 343.1 239.8 343.2 C 239.4 343.1 238.8 342.9 238.2 343 L 238.6 343.4 C 238.6 343.4 237.7 343.4 237.1 343.4 C 237.3 343.7 237.5 344 237.7 344.5 C 237.6 344.6 237.3 344.5 237.1 344.5 C 237.4 345.1 237.9 345.3 238 345.5 C 237.8 345.6 237.6 345.6 237.3 345.5 C 237.5 345.9 237.9 346.2 238.3 346.6 C 238.2 346.7 238.1 346.7 237.7 346.7 C 238 347 238.4 347.3 238.8 347.6 C 238.7 347.7 238.4 347.7 238.2 347.7 C 238.6 348.1 239.1 348.3 239.6 348.6 C 239.4 348.8 239.2 348.7 239 348.7 C 239.3 349 239.9 349.1 240.5 349.3 C 240.4 349.5 240.3 349.5 240.1 349.6 C 240.7 349.9 241.5 349.8 241.8 349.9 C 241.7 350.1 241.6 350.2 241.4 350.3 C 242.3 350.4 244.9 350.3 245.4 348.3 C 244.6 347.2 242.8 345.9 239.8 344.4 L 239.8 344.4 Z M 255.9 344.4 C 252.9 345.9 251.1 347.2 250.2 348.2 C 250.7 350.1 253.3 350.2 254.2 350.2 C 254 350.1 253.8 350 253.8 349.8 C 254 349.6 254.9 349.8 255.5 349.5 C 255.3 349.5 255.2 349.4 255.1 349.2 C 255.7 349 256.2 348.9 256.6 348.6 C 256.4 348.6 256.2 348.6 256 348.5 C 256.5 348.2 257 348 257.4 347.6 C 257.1 347.6 256.9 347.6 256.8 347.5 C 257.3 347.2 257.6 346.9 258 346.6 C 257.6 346.6 257.5 346.6 257.4 346.5 C 257.7 346.2 258.2 345.9 258.4 345.4 C 258.1 345.5 257.9 345.5 257.7 345.4 C 257.8 345.1 258.3 345 258.6 344.4 C 258.3 344.4 258 344.5 258 344.4 C 258.1 343.9 258.4 343.6 258.6 343.3 C 258 343.3 257.1 343.3 257.1 343.3 L 257.5 342.9 C 256.9 342.7 256.3 342.9 255.9 343.1 C 255.7 342.9 255.9 342.8 256.1 342.6 C 255.6 342.7 255.2 342.8 254.7 342.9 C 254.5 342.7 254.8 342.5 255 342.3 C 254.2 342.4 253.9 342.6 253.6 342.8 C 253.4 342.6 253.6 342.4 253.7 342.2 C 253.1 342.4 252.8 342.7 252.5 343 C 252.4 342.9 252.2 342.8 252.4 342.4 C 252 342.6 251.7 342.9 251.5 343.2 C 251.2 343 251.3 342.8 251.3 342.6 C 250.9 342.9 250.6 343.3 250.3 343.7 C 250.2 343.7 250.2 343.5 250.1 343.2 C 249.1 344.2 247.6 346.6 249.7 347.6 C 251.4 346.2 253.5 345.2 255.9 344.4 L 255.9 344.4 Z M 251.5 364.2 C 251.5 362.4 249.9 360.9 247.9 360.9 C 245.9 360.9 244.3 362.4 244.3 364.2 C 244.3 364.2 244.3 364.2 244.3 364.2 C 244.3 366 245.9 367.5 247.9 367.5 C 249.9 367.5 251.5 366.1 251.5 364.2 C 251.5 364.2 251.5 364.2 251.5 364.2 Z M 245.8 354.8 C 244.3 353.8 242.1 354.5 241 356.2 C 239.8 357.9 240.1 360.1 241.6 361.1 L 241.6 361.1 C 243.1 362.1 245.3 361.4 246.4 359.7 C 247.5 358 247.3 355.8 245.8 354.8 L 245.8 354.8 Z M 249.8 354.7 C 248.3 355.7 248 357.9 249.2 359.6 C 250.4 361.3 252.5 362 254 361 L 254 361 C 255.5 360 255.8 357.8 254.6 356.1 C 253.4 354.4 251.3 353.7 249.8 354.7 L 249.8 354.7 Z M 237.5 362.4 C 238.8 363 239.9 355.9 238.3 356.4 C 235.6 357.9 236 361.3 237.5 362.4 Z M 257 356.3 C 255.4 355.9 256.4 362.9 257.8 362.3 C 259.2 361.2 259.7 357.9 257 356.3 L 257 356.3 Z M 256.5 355.3 C 256.6 352.3 254.3 350.7 251.5 351.1 C 250.5 351.3 256.4 356.4 256.5 355.3 Z M 243.8 351 C 241 350.5 238.7 352.2 238.8 355.2 C 238.8 356.3 244.8 351.2 243.8 351 Z M 247.8 350.3 C 246.1 350.3 244.5 351.5 244.5 352.2 C 244.5 353.1 245.8 354 247.8 354 C 249.8 354 251.1 353.3 251.1 352.4 C 251.1 351.4 249.3 350.3 247.8 350.3 L 247.8 350.3 Z M 247.9 368.6 C 246.5 368.6 244.2 369.2 244.3 369.9 C 244.3 370.4 246 372 247.8 371.9 C 249.5 371.9 251.3 370.4 251.3 369.7 C 251.3 369 249.3 368.5 247.9 368.6 L 247.9 368.6 Z M 242.5 364.4 C 241.3 363 239.8 362.2 238.8 362.8 C 238.1 363.3 238 365 239 366.7 C 240.4 368.7 242.4 368.9 243.2 368.4 C 244 367.8 243.5 365.7 242.5 364.4 L 242.5 364.4 Z M 253 364.1 C 251.9 365.4 251.3 367.7 252.1 368.5 C 252.9 369.1 255 369 256.5 366.9 C 257.6 365.5 257.3 363.1 256.6 362.5 C 255.7 361.7 254.3 362.6 253 364.1 L 253 364.1 Z"/>
  </g>
</svg>