<?xml version="1.0" encoding="utf-8"?>
<svg id="_sense_hat_" style="enable-background:new 22 90 460 310;" x="0px" y="0px" viewBox="23 91 434 302" preserveAspectRatio="none" xmlns="http://www.w3.org/2000/svg">
  <defs>
    <style type="text/css">
            .leds,
            .rled,
            .gled,
            .bled {
              mix-blend-mode: screen;
            }

            /*Stop blending for off and kled*/
            .kled,
            .oled {
              mix-blend-mode: normal;
            }
            /*Colored LEDs should glow*/

            .rled,
            .gled,
            .bled {
              filter: url(#glow);
            }
            /* Rectangles under the LEDs */

            .ledrect {
              filter: url(#shadow);
              fill: url(#ledrect);
            }

            .st0 {
              fill: #309A5D;
              stroke: #004537;
              stroke-width: 2.1959;
              stroke-miterlimit: 10;
            }

            .st1 {
              opacity: 0.15;
            }

            .st2 {
              opacity: 0.15;
              enable-background: new;
            }

            .st3 {
              fill: url(#XMLID_8_);
            }

            .st4 {
              opacity: 0.33;
              clip-path: url(#SVGID_2_);
              fill: url(#SVGID_3_);
              enable-background: new;
            }

            .st5 {
              opacity: 0.33;
              clip-path: url(#SVGID_5_);
              fill: url(#SVGID_6_);
              enable-background: new;
            }

            .st6 {
              fill: #4D4D4D;
              stroke: #333333;
              stroke-width: 1.0637;
              stroke-miterlimit: 10;
            }

            .st7 {
              fill: #20262E;
            }

            .st8 {
              fill: #B3B3B3;
            }

            .st9 {
              fill: none;
              stroke: #666666;
              stroke-width: 1.1067;
              stroke-miterlimit: 10;
            }

            .st10 {
              fill: none;
              stroke: #666666;
              stroke-width: 1.0637;
              stroke-miterlimit: 10;
            }

            .st11 {
              fill: none;
              stroke: #666666;
              stroke-width: 2.4169;
              stroke-miterlimit: 10;
            }

            .st12 {
              fill: #E6E6E6;
            }

            .st13 {
              clip-path: url(#SVGID_8_);
              fill: #FFFFFF;
              fill-opacity: 0.25;
            }

            .st14 {
              clip-path: url(#SVGID_10_);
              fill: #FFFFFF;
              fill-opacity: 0.25;
            }

            .st15 {
              fill: none;
              stroke: #666666;
              stroke-width: 1.1336;
              stroke-miterlimit: 10;
            }

            .st16 {
              clip-path: url(#SVGID_12_);
              fill: #FFFFFF;
              fill-opacity: 0.25;
            }

            .st17 {
              clip-path: url(#SVGID_14_);
              fill: #FFFFFF;
              fill-opacity: 0.25;
            }

            .st18 {
              clip-path: url(#SVGID_16_);
              fill: #FFFFFF;
              fill-opacity: 0.25;
            }

            .st19 {
              clip-path: url(#SVGID_18_);
              fill: #FFFFFF;
              fill-opacity: 0.25;
            }

            .st20 {
              fill: none;
              stroke: #FFDB13;
              stroke-width: 5.8236;
              stroke-miterlimit: 10;
            }

            .st21 {
              fill: none;
              stroke: #FFDB13;
              stroke-width: 5.6295;
              stroke-miterlimit: 10;
            }

            .st22 {
              fill: none;
              stroke: #FFDB13;
              stroke-width: 5.5324;
              stroke-miterlimit: 10;
            }

            .st23 {
              fill: #575756;
              stroke: #3C3C3B;
              stroke-width: 1.1099;
              stroke-miterlimit: 10;
            }

            .st24 {
              fill: #BDBEC2;
            }

            .st25 {
              fill: #575756;
              stroke: #3C3C3B;
              stroke-width: 0.2469;
              stroke-miterlimit: 10;
            }

            .st26 {
              fill: none;
              stroke: #FFDB13;
              stroke-width: 6.2377;
              stroke-miterlimit: 10;
            }

            .st27 {
              fill: #B3B3B3;
              stroke: #666666;
              stroke-width: 0.8999;
              stroke-miterlimit: 10;
            }

            .st28 {
              opacity: 0.25;
              fill: #FFFFFF;
              enable-background: new;
            }

            .st29 {
              fill: #333333;
            }

            .st30 {
              fill: #575756;
              stroke: #3C3C3B;
              stroke-width: 1.3186;
              stroke-miterlimit: 10;
            }

            .st31 {
              fill: #8E5F41;
            }

            .st32 {
              fill: #F29F6A;
            }

            .st33 {
              fill: #B89A5D;
            }

            .st34 {
              opacity: 0.4;
            }

            .st35 {
              fill: #575756;
            }

            .st36 {
              fill: #F5F5F5;
            }

            .st37 {
              fill: url(#bigrect);
            }

            .st38 {
              filter: url(#shadow);
              fill: url(#ledrect);
            }

            .st39 {
              opacity: 1;
              fill: black;
            }

            /*Ignore dark LED circles that turned into white rings on blend */
            .st40 {
              fill: #968E87;
              opacity: 0;
            }

            .st41 {
              opacity: 0.1;
              fill: #1D1D1B;
            }

            .st42 {
              opacity: 0.15;
              fill: #1D1D1B;
            }

            .st43 {
              fill: #3F3F3F;
              stroke: #333333;
              stroke-width: 1.9404;
              stroke-miterlimit: 10;
            }

            .st44 {
              fill: #484848;
              stroke: #333333;
              stroke-width: 1.8277;
              stroke-miterlimit: 10;
            }

            .st45 {
              opacity: 0.25;
              fill: #1D1D1B;
            }

            .st46 {
              fill: #414140;
              stroke: #333333;
              stroke-width: 1.7828;
              stroke-miterlimit: 10;
            }

            .st47 {
              fill: #484848;
              stroke: #333333;
              stroke-width: 2.1136;
              stroke-miterlimit: 10;
            }
          </style>
  </defs>
  <g id="Sense_x5F_HAT_x5F_Pi">
    <path class="st0" d="M 457.037 92.051 L 456.955 392.312 C 428.306 393.706 23.151 392.555 23.151 392.555 C 23.349 366.453 23.212 116.729 23.651 90.945 C 23.651 90.945 419.794 92.249 457.037 92.051 Z M 59.2 112.5 C 59.2 105.6 53.6 100 46.7 99.9 C 39.8 99.8 34.2 105.5 34.1 112.4 C 34.1 119.3 39.7 124.9 46.6 125 C 53.5 125 59.2 119.4 59.2 112.5 Z M 352.8 113 C 352.8 106.1 347.2 100.5 340.3 100.4 C 333.4 100.4 327.8 106 327.7 112.9 C 327.7 119.8 333.3 125.4 340.2 125.5 C 347.2 125.5 352.8 119.9 352.8 113 Z M 58.7 370.1 C 58.7 363.2 53.1 357.6 46.2 357.5 C 39.3 357.4 33.7 363.1 33.6 370 C 33.6 376.9 39.2 382.5 46.1 382.6 C 53 382.7 58.7 377 58.7 370.1 Z" style="stroke: rgb(48, 154, 93);"/>
    <g/>
    <g>
      <g/>
      <g>
        <defs>
          <polygon id="SVGID_1_" points="315.1,383.2 315.4,318.5 276.6,318.5 276.3,383.2 &#9;&#9;&#9;&#9;&#9;&#9;"/>
        </defs>
      </g>
      <g>
        <defs>
          <polygon id="SVGID_4_" points="315.1,383.2 315.4,318.5 276.6,318.5 276.3,383.2 &#9;&#9;&#9;&#9;&#9;&#9;"/>
        </defs>
      </g>
    </g>
    <g/>
    <g/>
    <g/>
    <g>
      <g/>
      <g/>
    </g>
    <g>
      <g/>
      <g/>
    </g>
    <g>
      <g/>
      <g>
        <defs>
          <rect id="SVGID_7_" x="359.9" y="98.5" width="117.9" height="93.3"/>
        </defs>
      </g>
      <g>
        <defs>
          <rect id="SVGID_9_" x="359.9" y="98.5" width="117.9" height="93.3"/>
        </defs>
      </g>
      <g/>
    </g>
    <g>
      <g/>
      <g>
        <defs>
          <rect id="SVGID_11_" x="360.4" y="199.8" width="117.9" height="93.3"/>
        </defs>
      </g>
      <g>
        <defs>
          <rect id="SVGID_13_" x="360.4" y="199.8" width="117.9" height="93.3"/>
        </defs>
      </g>
      <g/>
    </g>
    <g>
      <g/>
      <g>
        <defs>
          <rect id="SVGID_15_" x="360.9" y="303" width="118.5" height="93.3"/>
        </defs>
      </g>
      <g>
        <defs>
          <rect id="SVGID_17_" x="360.9" y="303" width="118.5" height="93.3"/>
        </defs>
      </g>
      <g/>
    </g>
    <ellipse class="st20" cx="336.3" cy="113.5" rx="11.2" ry="11.2"/>
    <ellipse class="st21" cx="46.3" cy="368.3" rx="10.9" ry="10.9"/>
    <ellipse class="st22" cx="44.9" cy="114.7" rx="10.7" ry="10.7"/>
    <g/>
    <g>
      <rect x="30.3" y="317.7" class="st24" width="4.5" height="1.8"/>
      <rect x="30.5" y="321.7" class="st24" width="4.5" height="1.8"/>
      <rect x="35.4" y="319.6" class="st24" width="4.5" height="1.8"/>
      <path class="st25" d="M32.8,324.3l0-7.6c0-0.2,0.1-0.3,0.3-0.3l4.1,0c0.2,0,0.3,0.1,0.3,0.3l0,7.6c0,0.2-0.1,0.3-0.3,0.3l-4.1,0&#10;                  C32.9,324.6,32.8,324.5,32.8,324.3z"/>
    </g>
    <g>
      <rect x="30.3" y="300.1" class="st24" width="4.5" height="1.8"/>
      <rect x="30.5" y="304.1" class="st24" width="4.5" height="1.8"/>
      <rect x="35.4" y="302" class="st24" width="4.5" height="1.8"/>
      <path class="st25" d="M32.8,306.7l0-7.6c0-0.2,0.1-0.3,0.3-0.3l4.1,0c0.2,0,0.3,0.1,0.3,0.3l0,7.6c0,0.2-0.1,0.3-0.3,0.3l-4.1,0&#10;                  C32.9,307,32.8,306.9,32.8,306.7z"/>
    </g>
    <g>
      <rect x="44" y="308.9" class="st24" width="4.5" height="1.8"/>
      <rect x="43.8" y="312.9" class="st24" width="4.5" height="1.8"/>
      <rect x="38.9" y="310.8" class="st24" width="4.5" height="1.8"/>
      <path class="st25" d="M46.1,315.5l0-7.6c0-0.2-0.1-0.3-0.3-0.3l-4.1,0c-0.2,0-0.3,0.1-0.3,0.3l0,7.6c0,0.2,0.1,0.3,0.3,0.3&#10;                  l4.1,0C46,315.8,46.1,315.7,46.1,315.5z"/>
    </g>
    <g>
      <rect x="44" y="324.8" class="st24" width="4.5" height="1.8"/>
      <rect x="43.8" y="328.8" class="st24" width="4.5" height="1.8"/>
      <rect x="38.9" y="326.7" class="st24" width="4.5" height="1.8"/>
      <path class="st25" d="M46.1,331.4l0-7.6c0-0.2-0.1-0.3-0.3-0.3l-4.1,0c-0.2,0-0.3,0.1-0.3,0.3l0,7.6c0,0.2,0.1,0.3,0.3,0.3&#10;                  l4.1,0C46,331.7,46.1,331.6,46.1,331.4z"/>
    </g>
    <g>
      <rect x="30.3" y="157.2" class="st24" width="4.5" height="1.8"/>
      <rect x="30.5" y="161.2" class="st24" width="4.5" height="1.8"/>
      <rect x="35.4" y="159.1" class="st24" width="4.5" height="1.8"/>
      <path class="st25" d="M32.8,163.9l0-7.6c0-0.2,0.1-0.3,0.3-0.3l4.1,0c0.2,0,0.3,0.1,0.3,0.3l0,7.6c0,0.2-0.1,0.3-0.3,0.3l-4.1,0&#10;                  C32.9,164.2,32.8,164,32.8,163.9z"/>
    </g>
    <g>
      <rect x="30.3" y="139.6" class="st24" width="4.5" height="1.8"/>
      <rect x="30.5" y="143.6" class="st24" width="4.5" height="1.8"/>
      <rect x="35.4" y="141.5" class="st24" width="4.5" height="1.8"/>
      <path class="st25" d="M32.8,146.3l0-7.6c0-0.2,0.1-0.3,0.3-0.3l4.1,0c0.2,0,0.3,0.1,0.3,0.3l0,7.6c0,0.2-0.1,0.3-0.3,0.3l-4.1,0&#10;                  C32.9,146.6,32.8,146.5,32.8,146.3z"/>
    </g>
    <g>
      <rect x="44" y="148.4" class="st24" width="4.5" height="1.8"/>
      <rect x="43.8" y="152.4" class="st24" width="4.5" height="1.8"/>
      <rect x="38.9" y="150.3" class="st24" width="4.5" height="1.8"/>
      <path class="st25" d="M46.1,155.1l0-7.6c0-0.2-0.1-0.3-0.3-0.3l-4.1,0c-0.2,0-0.3,0.1-0.3,0.3l0,7.6c0,0.2,0.1,0.3,0.3,0.3&#10;                  l4.1,0C46,155.4,46.1,155.3,46.1,155.1z"/>
    </g>
    <g>
      <rect x="44" y="164.3" class="st24" width="4.5" height="1.8"/>
      <rect x="43.8" y="168.3" class="st24" width="4.5" height="1.8"/>
      <rect x="38.9" y="166.2" class="st24" width="4.5" height="1.8"/>
      <path class="st25" d="M46.1,171l0-7.6c0-0.2-0.1-0.3-0.3-0.3l-4.1,0c-0.2,0-0.3,0.1-0.3,0.3l0,7.6c0,0.2,0.1,0.3,0.3,0.3l4.1,0&#10;                  C46,171.3,46.1,171.1,46.1,171z"/>
    </g>
    <ellipse class="st26" cx="338.5" cy="366.7" rx="12" ry="12" style="fill: rgb(255, 219, 19);"/>
    <ellipse class="st26" cx="337.3" cy="113.5" rx="12" ry="12" style="fill: rgb(255, 219, 19);"/>
    <ellipse class="st26" cx="46" cy="368.1" rx="12" ry="12" style="fill: rgb(255, 219, 19);"/>
    <ellipse class="st26" cx="44.8" cy="114.9" rx="12" ry="12" style="fill: rgb(255, 219, 19);"/>
    <g>
      <path class="st28" d="M53.6,115.3c0,0-0.2-0.2-0.5-0.7c-0.3-0.4-0.8-1-1.3-1.6c-0.5-0.6-1.1-1.3-1.7-2.1&#10;                  c-0.3-0.4-0.6-0.8-0.9-1.1c-0.3-0.4-0.7-0.8-1.1-1c-0.4-0.3-0.9-0.5-1.3-0.7c-0.2-0.1-0.5-0.2-0.7-0.3c-0.2-0.1-0.5-0.1-0.7-0.2&#10;                  c-0.5-0.1-1-0.1-1.4-0.2c-0.5-0.1-0.9,0-1.3,0c-0.4,0-0.8,0-1.2,0.1c-0.3,0.1-0.6,0.1-0.9,0.2c-0.5,0.1-0.8,0.1-0.8,0.1&#10;                  l-0.1-0.3c0,0,0.3-0.1,0.7-0.3c0.2-0.1,0.5-0.2,0.9-0.4c0.3-0.2,0.7-0.3,1.2-0.4c0.4-0.1,0.9-0.3,1.4-0.3c0.5,0,1.1-0.1,1.7-0.1&#10;                  c0.6,0.1,1.2,0,1.8,0.2c0.6,0.2,1.3,0.3,1.8,0.7c0.6,0.3,1.2,0.6,1.7,1c0.5,0.4,1,0.8,1.4,1.3c0.4,0.5,0.7,1,0.9,1.5&#10;                  c0.3,0.5,0.4,1,0.5,1.4c0.1,0.5,0.2,0.9,0.2,1.3c0,0.4,0.1,0.7,0,1c0,0.6-0.1,0.9-0.1,0.9L53.6,115.3z"/>
    </g>
    <rect x="502.6" y="329.065" class="st24" width="8.74" height="3.733" transform="matrix(1.000003, 0, 0, 1.000004, -194.696305, -139.089633)"/>
    <rect x="307.906" y="197.263" class="st24" width="8.739" height="3.733"/>
    <rect x="502.6" y="342.94" class="st24" width="8.74" height="3.022" transform="matrix(1, 0, 0, 1.000005, -194.694489, -139.099464)"/>
    <rect x="502.6" y="349.152" class="st24" width="8.74" height="3.555" transform="matrix(1, 0, 0, 1.000009, -194.694427, -139.093925)"/>
    <rect x="307.905" y="216.28" class="st24" width="8.74" height="3.555"/>
    <rect x="307.905" y="222.502" class="st24" width="8.74" height="3.555"/>
    <rect x="545.808" y="329.065" class="st24" width="8.74" height="3.733" transform="matrix(1.000007, 0, 0, 1.000004, -194.697141, -139.089633)"/>
    <rect x="337.858" y="202.402" class="st24" width="8.74" height="3.733" transform="matrix(0.999997, 0, 0, 1, 13.257924, -5.138321)"/>
    <rect x="545.808" y="342.94" class="st24" width="8.74" height="3.022" transform="matrix(1, 0, 0, 1.000005, -194.693237, -139.099464)"/>
    <rect x="545.808" y="349.152" class="st24" width="8.74" height="3.555" transform="matrix(1, 0, 0, 1.000009, -194.693176, -139.093925)"/>
    <rect x="545.808" y="355.375" class="st24" width="8.74" height="3.555" transform="matrix(1.000003, 0, 0, 1, -194.695021, -139.094696)"/>
    <rect x="545.808" y="361.599" class="st24" width="8.74" height="3.555" transform="matrix(1.000007, 0, 0, 1, -194.697141, -139.097061)"/>
    <path class="st23" d="M 349.335 229.079 L 318.102 229.079 C 316.483 229.079 315.189 227.657 315.189 225.88 L 315.189 191.576 C 315.189 189.799 316.483 188.377 318.102 188.377 L 349.335 188.377 C 350.953 188.377 352.248 189.799 352.248 191.576 L 352.248 225.88 C 352.087 227.657 350.953 229.079 349.335 229.079 Z"/>
    <path class="st30" d="M 189.399 265.307 L 122.913 265.307 C 118.625 265.307 115.408 263.107 115.408 260.174 L 115.408 191.762 C 115.408 188.83 118.625 186.632 122.913 186.632 L 189.399 186.632 C 193.688 186.632 196.905 188.83 196.905 191.762 L 196.905 260.174 C 196.905 263.107 193.688 265.307 189.399 265.307 Z"/>
    <circle class="st31" cx="71.2" cy="377.2" r="6.8"/>
    <circle class="st32" cx="71.2" cy="377.2" r="3.6"/>
    <rect x="331.9" y="138.6" class="st33" width="10.9" height="5.1"/>
    <path class="st24" d="M335.1,138.6v5.1h-2.7c-0.3,0-0.5-0.2-0.5-0.5v-4c0-0.3,0.2-0.5,0.5-0.5L335.1,138.6L335.1,138.6z"/>
    <path class="st24" d="M342.7,139.2v3.9c0,0.3-0.3,0.6-0.6,0.6h-1.9v-5.1h1.9C342.4,138.6,342.7,138.9,342.7,139.2z"/>
    <rect x="65.7" y="354.6" class="st33" width="10.9" height="5.1"/>
    <path class="st24" d="M68.9,354.6v5.1h-2.7c-0.3,0-0.5-0.2-0.5-0.5v-4c0-0.3,0.2-0.5,0.5-0.5L68.9,354.6L68.9,354.6z"/>
    <path class="st24" d="M76.6,355.2v3.9c0,0.3-0.3,0.6-0.6,0.6h-1.9v-5.1H76C76.3,354.6,76.6,354.9,76.6,355.2z"/>
    <rect x="27.3" y="329.5" class="st33" width="6" height="12.6"/>
    <path class="st24" d="M27.3,338.4h6v3.1c0,0.4-0.3,0.6-0.6,0.6H28c-0.4,0-0.6-0.3-0.6-0.6L27.3,338.4L27.3,338.4z"/>
    <path class="st24" d="M28,329.5h4.6c0.4,0,0.7,0.3,0.7,0.7v2.3h-6v-2.3C27.3,329.8,27.6,329.5,28,329.5z"/>
    <g class="st34"/>
    <g class="st34"/>
    <g class="st34"/>
    <g class="st34"/>
    <path class="st36" d="M 144.78 191.182 C 145.447 191.182 146.114 191.627 146.782 191.849 C 148.339 191.404 148.784 192.072 149.451 192.294 C 151.23 191.849 151.675 192.739 152.342 193.406 L 153.232 193.406 C 155.679 194.963 157.013 197.855 157.458 199.412 C 157.903 197.855 159.238 194.963 161.684 193.406 L 162.574 193.406 C 163.464 192.516 163.909 191.849 165.466 192.294 C 166.133 192.072 166.578 191.404 168.135 191.849 C 169.025 191.627 169.914 190.737 171.249 191.849 C 172.361 191.404 173.251 191.404 174.363 192.072 C 175.698 191.849 176.365 192.294 176.587 192.739 C 176.81 192.739 179.034 192.516 179.924 193.851 C 182.37 193.629 183.038 195.186 182.148 196.743 C 182.593 197.41 183.038 198.3 181.926 199.634 C 182.37 200.524 182.148 201.191 181.036 202.303 C 181.258 203.416 180.813 204.083 179.924 204.75 C 180.146 206.307 178.589 207.197 178.144 207.419 C 177.922 208.309 177.699 209.199 175.92 209.644 C 175.698 210.978 174.585 211.201 173.473 211.423 C 176.81 213.425 179.924 215.872 179.701 222.322 L 180.146 223.212 C 184.15 225.658 187.486 233.221 182.148 239.227 C 181.703 241.229 181.258 242.563 180.591 244.12 C 179.701 250.348 174.585 253.24 173.028 253.462 C 171.027 255.019 168.802 256.354 165.911 257.466 C 163.241 260.357 160.127 261.247 157.236 261.247 C 157.236 261.247 157.236 261.247 157.013 261.247 C 153.899 261.247 151.008 260.135 148.339 257.466 C 145.447 256.354 143.223 255.019 141.221 253.462 C 139.886 253.017 134.548 250.126 133.881 244.12 C 133.436 242.563 132.769 241.229 132.324 239.227 C 126.763 232.999 130.322 225.436 134.326 223.212 L 134.77 222.322 C 134.77 216.094 137.662 213.425 141.221 211.423 C 140.109 211.201 139.219 210.978 138.774 209.644 C 136.995 209.199 136.55 208.309 136.55 207.419 C 136.105 207.197 134.548 206.307 134.77 204.75 C 133.881 204.083 133.436 203.416 133.658 202.303 C 132.769 201.191 132.546 200.524 132.769 199.634 C 131.656 198.3 132.101 197.41 132.546 196.743 C 131.656 195.186 132.546 193.629 134.77 193.851 C 135.66 192.516 137.662 192.739 138.107 192.739 C 138.552 192.294 138.997 191.849 140.331 192.072 C 141.221 191.182 142.333 191.404 143.445 191.849 C 144.113 191.404 144.557 191.182 144.78 191.182 L 144.78 191.182 Z M 139.886 197.632 C 145.225 199.412 149.896 201.636 153.677 204.973 C 158.348 202.748 155.234 197.41 152.787 195.186 C 152.565 195.853 152.565 196.075 152.342 196.298 C 151.675 195.408 151.008 194.741 150.118 193.851 C 150.118 194.296 150.341 194.741 149.673 195.186 C 149.228 194.518 148.561 193.851 147.671 193.406 C 148.116 194.073 147.671 194.296 147.449 194.741 C 146.782 194.073 146.114 193.629 144.78 192.961 C 145.225 193.406 145.67 193.851 145.002 194.296 C 144.335 193.851 143.668 193.406 141.888 193.184 C 142.333 193.629 143 194.073 142.556 194.518 C 141.666 194.073 140.554 193.851 139.441 193.851 C 139.886 194.296 140.331 194.741 139.886 194.963 C 138.997 194.741 137.662 194.296 136.327 194.518 L 137.217 195.408 C 137.217 195.408 135.215 195.408 133.881 195.408 C 134.326 196.075 134.77 196.743 135.215 197.855 C 134.993 198.077 134.326 197.855 133.881 197.855 C 134.548 199.189 135.66 199.634 135.883 200.079 C 135.438 200.301 134.993 200.301 134.326 200.079 C 134.77 200.969 135.66 201.636 136.55 202.526 C 136.327 202.748 136.105 202.748 135.215 202.748 C 135.883 203.416 136.772 204.083 137.662 204.75 C 137.44 204.973 136.772 204.973 136.327 204.973 C 137.217 205.862 138.329 206.307 139.441 206.974 C 138.997 207.419 138.552 207.197 138.107 207.197 C 138.774 207.864 140.109 208.087 141.443 208.531 C 141.221 208.976 140.999 208.976 140.554 209.199 C 141.888 209.866 143.668 209.644 144.335 209.866 C 144.113 210.311 143.89 210.533 143.445 210.756 C 145.447 210.978 151.23 210.756 152.342 206.307 C 150.563 203.86 146.559 200.969 139.886 197.632 L 139.886 197.632 Z M 175.698 197.632 C 169.025 200.969 165.021 203.86 163.019 206.085 C 164.131 210.311 169.914 210.533 171.916 210.533 C 171.471 210.311 171.027 210.088 171.027 209.644 C 171.471 209.199 173.473 209.644 174.808 208.976 C 174.363 208.976 174.141 208.754 173.918 208.309 C 175.253 207.864 176.365 207.642 177.255 206.974 C 176.81 206.974 176.365 206.974 175.92 206.752 C 177.032 206.085 178.144 205.64 179.034 204.75 C 178.367 204.75 177.922 204.75 177.699 204.528 C 178.812 203.86 179.479 203.193 180.369 202.526 C 179.479 202.526 179.256 202.526 179.034 202.303 C 179.701 201.636 180.813 200.969 181.258 199.857 C 180.591 200.079 180.146 200.079 179.701 199.857 C 179.924 199.189 181.036 198.967 181.703 197.632 C 181.036 197.632 180.369 197.855 180.369 197.632 C 180.591 196.52 181.258 195.853 181.703 195.186 C 180.369 195.186 178.367 195.186 178.367 195.186 L 179.256 194.296 C 177.922 193.851 176.587 194.296 175.698 194.741 C 175.253 194.296 175.698 194.073 176.142 193.629 C 175.03 193.851 174.141 194.073 173.028 194.296 C 172.584 193.851 173.251 193.406 173.696 192.961 C 171.916 193.184 171.249 193.629 170.582 194.073 C 170.137 193.629 170.582 193.184 170.804 192.739 C 169.469 193.184 168.802 193.851 168.135 194.518 C 167.913 194.296 167.468 194.073 167.913 193.184 C 167.023 193.629 166.355 194.296 165.911 194.963 C 165.243 194.518 165.466 194.073 165.466 193.629 C 164.576 194.296 163.909 195.186 163.241 196.075 C 163.019 196.075 163.019 195.63 162.797 194.963 C 160.572 197.187 157.236 202.526 161.907 204.75 C 165.688 201.636 170.359 199.412 175.698 197.632 L 175.698 197.632 Z M 165.911 241.673 C 165.911 237.67 162.352 234.333 157.903 234.333 C 153.455 234.333 149.896 237.67 149.896 241.673 C 149.896 241.673 149.896 241.673 149.896 241.673 C 149.896 245.677 153.455 249.014 157.903 249.014 C 162.352 249.014 165.911 245.9 165.911 241.673 C 165.911 241.673 165.911 241.673 165.911 241.673 Z M 153.232 220.765 C 149.896 218.541 145.002 220.098 142.556 223.879 C 139.886 227.66 140.554 232.554 143.89 234.778 L 143.89 234.778 C 147.227 237.002 152.12 235.445 154.567 231.664 C 157.013 227.883 156.569 222.989 153.232 220.765 L 153.232 220.765 Z M 162.129 220.543 C 158.793 222.767 158.126 227.66 160.795 231.442 C 163.464 235.223 168.135 236.78 171.471 234.556 L 171.471 234.556 C 174.808 232.331 175.475 227.438 172.806 223.657 C 170.137 219.875 165.466 218.318 162.129 220.543 L 162.129 220.543 Z M 134.77 237.67 C 137.662 239.004 140.109 223.212 136.55 224.324 C 130.544 227.66 131.434 235.223 134.77 237.67 Z M 178.144 224.101 C 174.585 223.212 176.81 238.782 179.924 237.447 C 183.038 235.001 184.15 227.66 178.144 224.101 L 178.144 224.101 Z M 177.032 221.877 C 177.255 215.204 172.139 211.645 165.911 212.535 C 163.686 212.98 176.81 224.324 177.032 221.877 Z M 148.784 212.313 C 142.556 211.201 137.44 214.982 137.662 221.655 C 137.662 224.101 151.008 212.758 148.784 212.313 Z M 157.681 210.756 C 153.899 210.756 150.341 213.425 150.341 214.982 C 150.341 216.984 153.232 218.986 157.681 218.986 C 162.129 218.986 165.021 217.429 165.021 215.427 C 165.021 213.202 161.017 210.756 157.681 210.756 L 157.681 210.756 Z M 157.903 251.46 C 154.789 251.46 149.673 252.795 149.896 254.352 C 149.896 255.464 153.677 259.023 157.681 258.801 C 161.462 258.801 165.466 255.464 165.466 253.907 C 165.466 252.35 161.017 251.238 157.903 251.46 L 157.903 251.46 Z M 145.892 242.118 C 143.223 239.004 139.886 237.225 137.662 238.559 C 136.105 239.672 135.883 243.453 138.107 247.234 C 141.221 251.683 145.67 252.128 147.449 251.015 C 149.228 249.681 148.116 245.01 145.892 242.118 L 145.892 242.118 Z M 169.247 241.451 C 166.8 244.343 165.466 249.458 167.245 251.238 C 169.025 252.572 173.696 252.35 177.032 247.679 C 179.479 244.565 178.812 239.227 177.255 237.892 C 175.253 236.113 172.139 238.115 169.247 241.451 L 169.247 241.451 Z"/>
    <g id="LEDs">
      <g/>
      <g/>
      <g/>
      <g/>
      <g/>
      <g/>
      <g/>
      <g/>
      <g/>
      <g/>
      <g/>
      <g/>
      <g/>
      <g/>
      <g/>
      <g/>
      <g/>
      <g/>
      <g/>
      <g/>
      <g/>
      <g/>
      <g/>
      <g/>
      <g/>
      <g/>
      <g/>
      <g/>
      <g/>
      <g/>
      <g/>
      <g/>
      <g/>
      <g/>
      <g/>
      <g/>
      <g/>
      <g/>
      <g/>
      <g/>
      <g/>
      <g/>
      <g/>
      <g/>
      <g/>
      <g/>
      <g/>
      <g/>
      <g/>
      <g/>
      <g/>
      <g/>
      <g/>
      <g/>
      <g/>
      <g/>
      <g/>
      <g/>
      <g/>
      <g/>
      <g/>
      <g/>
      <g/>
      <g/>
    </g>
  </g>
  <g class="leds">
    <g id="_sense_hat_led_07_"/>
    <g id="_sense_hat_led_15_"/>
    <g id="_sense_hat_led_23_"/>
    <g id="_sense_hat_led_31_"/>
    <g id="_sense_hat_led_39_"/>
    <g id="_sense_hat_led_47_"/>
    <g id="_sense_hat_led_55_"/>
    <g id="_sense_hat_led_63_"/>
    <g id="_sense_hat_led_06_"/>
    <g id="_sense_hat_led_14_"/>
    <g id="_sense_hat_led_22_"/>
    <g id="_sense_hat_led_30_"/>
    <g id="_sense_hat_led_38_"/>
    <g id="_sense_hat_led_46_"/>
    <g id="_sense_hat_led_54_"/>
    <g id="_sense_hat_led_62_"/>
    <g id="_sense_hat_led_05_"/>
    <g id="_sense_hat_led_13_"/>
    <g id="_sense_hat_led_21_"/>
    <g id="_sense_hat_led_29_"/>
    <g id="_sense_hat_led_37_"/>
    <g id="_sense_hat_led_45_"/>
    <g id="_sense_hat_led_53_"/>
    <g id="_sense_hat_led_61_"/>
    <g id="_sense_hat_led_04_"/>
    <g id="_sense_hat_led_12_"/>
    <g id="_sense_hat_led_20_"/>
    <g id="_sense_hat_led_28_"/>
    <g id="_sense_hat_led_36_"/>
    <g id="_sense_hat_led_44_"/>
    <g id="_sense_hat_led_52_"/>
    <g id="_sense_hat_led_60_"/>
    <g id="_sense_hat_led_03_"/>
    <g id="_sense_hat_led_11_"/>
    <g id="_sense_hat_led_19_"/>
    <g id="_sense_hat_led_27_"/>
    <g id="_sense_hat_led_35_"/>
    <g id="_sense_hat_led_43_"/>
    <g id="_sense_hat_led_51_"/>
    <g id="_sense_hat_led_59_"/>
    <g id="_sense_hat_led_02_"/>
    <g id="_sense_hat_led_10_"/>
    <g id="_sense_hat_led_18_"/>
    <g id="_sense_hat_led_26_"/>
    <g id="_sense_hat_led_34_"/>
    <g id="_sense_hat_led_42_"/>
    <g id="_sense_hat_led_50_"/>
    <g id="_sense_hat_led_58_"/>
    <g id="_sense_hat_led_01_"/>
    <g id="_sense_hat_led_09_"/>
    <g id="_sense_hat_led_17_"/>
    <g id="_sense_hat_led_25_"/>
    <g id="_sense_hat_led_33_"/>
    <g id="_sense_hat_led_41_"/>
    <g id="_sense_hat_led_49_"/>
    <g id="_sense_hat_led_57_"/>
    <g id="_sense_hat_led_00_"/>
    <g id="_sense_hat_led_08_"/>
    <g id="_sense_hat_led_16_"/>
    <g id="_sense_hat_led_24_"/>
    <g id="_sense_hat_led_32_"/>
    <g id="_sense_hat_led_40_"/>
    <g id="_sense_hat_led_48_"/>
    <g id="_sense_hat_led_56_"/>
  </g>
  <g id="joystick_states">
    <g id="_sense_hat_joystick_right_">
      <g/>
      <g/>
    </g>
    <g id="_sense_hat_joystick_left_">
      <g/>
    </g>
    <g id="_sense_hat_joystick_down_">
      <g/>
      <g/>
    </g>
    <g id="_sense_hat_joystick_up_">
      <g/>
      <g/>
    </g>
    <g id="_sense_hat_joystick_enter_">
      <g/>
    </g>
    <g id="_sense_hat_joystick_rest_">
      <g/>
    </g>
  </g>
</svg>